<?xml version="1.0" encoding="UTF-8" standalone="no"?>
<!-- Created with Fritzing (http://www.fritzing.org/) -->

<svg
   xmlns:dc="http://purl.org/dc/elements/1.1/"
   xmlns:cc="http://creativecommons.org/ns#"
   xmlns:rdf="http://www.w3.org/1999/02/22-rdf-syntax-ns#"
   xmlns:svg="http://www.w3.org/2000/svg"
   xmlns="http://www.w3.org/2000/svg"
   xmlns:sodipodi="http://sodipodi.sourceforge.net/DTD/sodipodi-0.dtd"
   xmlns:inkscape="http://www.inkscape.org/namespaces/inkscape"
   version="1.2"
   x="0in"
   y="0in"
   viewBox="0 0 88.7326 120.333"
   width="1.2324in"
   height="1.67129in"
   id="svg2"
   inkscape:version="0.91 r13725"
   sodipodi:docname="arroseur_pcb_etch_copper_bottom_mirror.svg">
  <metadata
     id="metadata378">
    <rdf:RDF>
      <cc:Work
         rdf:about="">
        <dc:format>image/svg+xml</dc:format>
        <dc:type
           rdf:resource="http://purl.org/dc/dcmitype/StillImage" />
      </cc:Work>
    </rdf:RDF>
  </metadata>
  <defs
     id="defs376" />
  <sodipodi:namedview
     pagecolor="#ffffff"
     bordercolor="#666666"
     borderopacity="1"
     objecttolerance="10"
     gridtolerance="10"
     guidetolerance="10"
     inkscape:pageopacity="0"
     inkscape:pageshadow="2"
     inkscape:window-width="883"
     inkscape:window-height="620"
     id="namedview374"
     showgrid="false"
     inkscape:zoom="1.5689809"
     inkscape:cx="55.457997"
     inkscape:cy="75.208052"
     inkscape:window-x="0"
     inkscape:window-y="23"
     inkscape:window-maximized="0"
     inkscape:current-layer="svg2" />
  <path
     style="color:#000000;font-style:normal;font-variant:normal;font-weight:normal;font-stretch:normal;font-size:medium;line-height:normal;font-family:sans-serif;text-indent:0;text-align:start;text-decoration:none;text-decoration-line:none;text-decoration-style:solid;text-decoration-color:#000000;letter-spacing:normal;word-spacing:normal;text-transform:none;direction:ltr;block-progression:tb;writing-mode:lr-tb;baseline-shift:baseline;text-anchor:start;white-space:normal;clip-rule:nonzero;display:inline;overflow:visible;visibility:visible;opacity:1;isolation:auto;mix-blend-mode:normal;color-interpolation:sRGB;color-interpolation-filters:linearRGB;solid-color:#000000;solid-opacity:1;fill:#000000;fill-opacity:1;fill-rule:nonzero;stroke:none;stroke-width:0.5;stroke-linecap:butt;stroke-linejoin:miter;stroke-miterlimit:4;stroke-dasharray:none;stroke-dashoffset:0;stroke-opacity:1;color-rendering:auto;image-rendering:auto;shape-rendering:auto;text-rendering:auto;enable-background:accumulate"
     d="M 0.046875 0.046875 L 0.046875 150.36914 L 110.86914 150.36914 L 110.86914 0.359375 L 110.86914 0.046875 L 0.046875 0.046875 z M 0.671875 0.671875 L 110.24414 0.671875 L 110.24414 149.74414 L 0.671875 149.74414 L 0.671875 0.671875 z M 101.17773 4.21875 L 101.17773 4.2382812 L 101.17773 15.447266 L 102.73242 15.447266 L 102.73242 10.949219 L 104.61523 10.949219 C 105.8721 10.949219 106.82447 10.666438 107.46875 10.097656 C 108.11803 9.5289089 108.43945 8.6879703 108.43945 7.5800781 C 108.43945 6.4821414 108.11798 5.6468337 107.46875 5.078125 C 106.82448 4.504322 105.87213 4.21875 104.61523 4.21875 L 101.17773 4.21875 z M 101.21875 4.2578125 L 104.61523 4.2578125 C 105.86607 4.2578125 106.80683 4.5422557 107.44141 5.1074219 C 108.08101 5.6676913 108.40039 6.4899953 108.40039 7.5800781 C 108.40039 8.6801876 108.08096 9.5081285 107.44141 10.068359 C 106.80685 10.628556 105.8661 10.910156 104.61523 10.910156 L 102.69141 10.910156 L 102.69141 15.404297 L 101.21875 15.404297 L 101.21875 4.2578125 z M 102.69141 5.4609375 L 102.69141 5.4824219 L 102.69141 9.7070312 L 104.61523 9.7070312 C 105.32305 9.7070312 105.87264 9.5212073 106.26172 9.1523438 C 106.65084 8.7834387 106.8457 8.2582702 106.8457 7.5800781 C 106.8457 6.9068531 106.6508 6.3844986 106.26172 6.015625 C 105.87264 5.6467615 105.32305 5.4609375 104.61523 5.4609375 L 102.69141 5.4609375 z M 102.73242 5.5019531 L 104.61523 5.5019531 C 105.31615 5.5019531 105.85219 5.6844455 106.23242 6.0449219 C 106.61264 6.405388 106.80469 6.9145149 106.80469 7.5800781 C 106.80469 8.2506654 106.61261 8.7626121 106.23242 9.1230469 C 105.85219 9.4835233 105.31615 9.6660156 104.61523 9.6660156 L 102.73242 9.6660156 L 102.73242 5.5019531 z M 13.994141 10.546875 C 11.830729 10.546875 10.078125 12.301431 10.078125 14.464844 C 10.078125 16.628255 11.830729 18.380859 13.994141 18.380859 C 16.157554 18.380859 17.912109 16.628255 17.912109 14.464844 C 17.912109 12.301431 16.157554 10.546875 13.994141 10.546875 z M 40.603516 10.583984 L 40.603516 12.246094 A 2.1602139 2.1602139 0 0 0 40.486328 12.238281 A 2.1602139 2.1602139 0 0 0 40.333984 12.240234 L 31.023438 12.544922 A 2.1602139 2.1602139 0 0 0 30.644531 12.529297 A 2.1602139 2.1602139 0 0 0 29.927734 12.695312 A 2.1602139 2.1602139 0 0 0 28.587891 14.197266 L 19.808594 31.822266 A 2.1602139 2.1602139 0 0 0 19.560547 32.40625 A 2.1602139 2.1602139 0 0 0 19.554688 32.425781 A 2.1602139 2.1602139 0 0 0 19.554688 32.427734 A 2.1602139 2.1602139 0 0 0 19.550781 32.445312 A 2.1602139 2.1602139 0 0 0 19.505859 32.669922 L 14.123047 60.869141 A 2.1602139 2.1602139 0 0 0 14.126953 61.753906 C 12.994499 62.300543 12.199219 63.451855 12.199219 64.785156 C 12.199219 66.638456 13.722872 68.162109 15.576172 68.162109 C 17.42947 68.162109 18.951172 66.638456 18.951172 64.785156 C 18.951172 63.902676 18.598434 63.101436 18.037109 62.498047 A 2.1602139 2.1602139 0 0 0 18.367188 61.679688 L 23.710938 33.681641 L 32.103516 16.830078 L 40.474609 16.556641 A 2.1602139 2.1602139 0 0 0 40.603516 16.546875 L 40.603516 17.960938 L 47.980469 17.960938 L 47.980469 10.583984 L 41.501953 10.583984 L 40.603516 10.583984 z M 13.994141 10.585938 C 16.135936 10.585938 17.873047 12.323048 17.873047 14.464844 C 17.873047 16.606638 16.135936 18.341797 13.994141 18.341797 C 11.852346 18.341797 10.117188 16.606638 10.117188 14.464844 C 10.117188 12.323048 11.852346 10.585938 13.994141 10.585938 z M 64.880859 12.048828 L 64.880859 17.34375 L 57.015625 20.814453 L 48.130859 21.023438 A 2.1602139 2.1602139 0 0 0 47.328125 21.189453 C 46.661033 20.22184 45.549107 19.582031 44.292969 19.582031 C 42.265699 19.582031 40.603516 21.244215 40.603516 23.271484 C 40.603516 25.298752 42.265699 26.962891 44.292969 26.962891 C 45.608082 26.962891 46.758519 26.256396 47.412109 25.210938 A 2.1602139 2.1602139 0 0 0 48.232422 25.341797 L 57.308594 25.130859 A 2.1602139 2.1602139 0 0 0 58.042969 25.058594 A 2.1602139 2.1602139 0 0 0 58.591797 24.841797 L 64.880859 22.066406 L 64.880859 22.677734 L 67.5625 22.677734 L 65.654297 44.511719 A 2.1602922 2.1602922 0 0 0 65.744141 45.337891 C 64.582696 45.962238 63.777344 47.17421 63.777344 48.576172 C 63.777344 50.603441 65.441482 52.265625 67.46875 52.265625 C 69.496019 52.265625 71.158203 50.603441 71.158203 48.576172 C 71.158203 47.401572 70.590135 46.361328 69.726562 45.683594 A 2.1602922 2.1602922 0 0 0 69.958984 44.886719 L 71.900391 22.677734 L 75.509766 22.677734 L 75.509766 12.048828 L 66.652344 12.048828 L 64.880859 12.048828 z M 88.195312 12.048828 C 85.280923 12.048828 82.880859 14.448893 82.880859 17.363281 C 82.880858 19.867834 84.655611 21.988962 87.003906 22.537109 L 91.367188 44.884766 L 90.685547 44.884766 L 90.685547 47.798828 C 90.630849 48.050283 90.597656 48.309143 90.597656 48.576172 C 90.597656 48.843201 90.630849 49.102134 90.685547 49.353516 L 90.685547 52.265625 L 92.101562 52.265625 A 2.1602139 2.1602139 0 0 0 92.091797 52.445312 L 91.984375 64.099609 L 88.779297 64.099609 L 88.779297 65.314453 L 69.345703 58.662109 A 2.1602139 2.1602139 0 0 0 68.710938 58.537109 A 2.1602139 2.1602139 0 0 0 68.421875 58.546875 C 67.977641 57.34372 66.826944 56.472656 65.476562 56.472656 C 65.133128 56.472656 64.806461 56.541167 64.496094 56.644531 A 2.1602139 2.1602139 0 0 0 63.830078 55.990234 L 48.46875 46.09375 A 2.1602139 2.1602139 0 0 0 47.033203 45.53125 A 2.1602139 2.1602139 0 0 0 46.771484 45.546875 A 2.1602139 2.1602139 0 0 0 45.25 46.386719 L 42.03125 49.375 A 2.1602715 2.1602715 0 0 0 41.554688 50.027344 C 41.366659 49.993896 41.175591 49.96875 40.978516 49.96875 C 39.150602 49.96875 37.648438 51.470915 37.648438 53.298828 C 37.648438 55.126741 39.150602 56.628906 40.978516 56.628906 C 42.806429 56.628906 44.308594 55.126741 44.308594 53.298828 C 44.308594 53.186601 44.286443 53.080202 44.275391 52.970703 A 2.1602715 2.1602715 0 0 0 44.970703 52.541016 L 47.234375 50.439453 L 61.490234 59.621094 A 2.1602139 2.1602139 0 0 0 62.361328 59.957031 C 62.532799 61.52847 63.862296 62.771484 65.476562 62.771484 C 66.09116 62.771484 66.661767 62.584389 67.148438 62.275391 A 2.1602139 2.1602139 0 0 0 67.947266 62.748047 L 88.779297 69.878906 L 88.779297 74.728516 L 99.410156 74.728516 L 99.410156 65.871094 L 99.410156 64.099609 L 96.302734 64.099609 L 96.412109 52.484375 A 2.1602139 2.1602139 0 0 0 96.40625 52.265625 L 98.066406 52.265625 L 98.066406 45.785156 L 98.066406 44.884766 L 95.697266 44.884766 A 2.1603632 2.1603632 0 0 0 95.662109 44.34375 L 91.240234 21.697266 C 92.605771 20.731018 93.511719 19.146723 93.511719 17.363281 C 93.511719 14.448893 91.109701 12.048828 88.195312 12.048828 z M 44.292969 12.382812 C 45.347445 12.382813 46.181641 13.217007 46.181641 14.271484 C 46.181641 15.325961 45.347445 16.162109 44.292969 16.162109 C 43.465112 16.162109 42.777075 15.643628 42.517578 14.912109 A 2.1602139 2.1602139 0 0 0 42.480469 13.753906 C 42.70359 12.958869 43.420226 12.382812 44.292969 12.382812 z M 70.195312 15.59375 C 71.194755 15.59375 71.96875 16.363838 71.96875 17.363281 C 71.96875 18.205844 71.415815 18.880988 70.644531 19.074219 A 2.1602139 2.1602139 0 0 0 69.810547 18.929688 A 2.1602139 2.1602139 0 0 0 69.449219 18.974609 C 69.246663 18.88346 69.065188 18.758152 68.914062 18.601562 A 2.1602139 2.1602139 0 0 0 68.4375 17.5 C 68.434133 17.454028 68.423828 17.410313 68.423828 17.363281 C 68.423828 16.363838 69.19587 15.59375 70.195312 15.59375 z M 88.195312 15.59375 C 89.194754 15.59375 89.966797 16.363838 89.966797 17.363281 C 89.966797 18.02532 89.624252 18.582253 89.105469 18.886719 A 2.1602139 2.1602139 0 0 0 88.894531 18.876953 A 2.1602139 2.1602139 0 0 0 87.941406 19.109375 C 87.069234 18.989881 86.423828 18.27538 86.423828 17.363281 C 86.423828 16.363838 87.19587 15.59375 88.195312 15.59375 z M 44.292969 21.380859 C 45.120824 21.380859 45.80691 21.899341 46.066406 22.630859 A 2.1602139 2.1602139 0 0 0 46.09375 23.824219 C 45.859993 24.602435 45.153446 25.164062 44.292969 25.164062 C 43.238491 25.164062 42.402344 24.325961 42.402344 23.271484 C 42.402344 22.217007 43.238491 21.380859 44.292969 21.380859 z M 44.292969 28.582031 C 42.265699 28.582031 40.603516 30.246169 40.603516 32.273438 C 40.603516 32.611316 40.663684 32.932573 40.75 33.244141 A 2.1602139 2.1602139 0 0 0 40.097656 33.757812 L 26.544922 49.09375 A 2.1602139 2.1602139 0 0 0 26.146484 49.585938 A 2.1602139 2.1602139 0 0 0 25.804688 50.609375 L 19.515625 78.419922 L 5.3730469 93.519531 A 2.1602139 2.1602139 0 0 0 4.5859375 95.214844 L 4.5859375 142.96289 A 2.1606424 2.1606424 0 0 0 4.5859375 142.98047 A 2.1606417 2.1606417 0 0 0 4.5917969 143.10547 A 2.1606424 2.1606424 0 0 0 4.6015625 143.2168 A 2.1606417 2.1606417 0 0 0 4.6171875 143.3125 A 2.1606424 2.1606424 0 0 0 4.6367188 143.42383 A 2.1606417 2.1606417 0 0 0 4.6621094 143.52344 A 2.1606424 2.1606424 0 0 0 4.6914062 143.63086 A 2.1606417 2.1606417 0 0 0 4.7324219 143.74219 A 2.1606424 2.1606424 0 0 0 4.7675781 143.83008 A 2.1606417 2.1606417 0 0 0 4.8164062 143.93164 A 2.1606424 2.1606424 0 0 0 4.8671875 144.0293 A 2.1606417 2.1606417 0 0 0 4.9277344 144.125 A 2.1606424 2.1606424 0 0 0 4.9765625 144.20312 A 2.1606417 2.1606417 0 0 0 5.0527344 144.30078 A 2.1606424 2.1606424 0 0 0 5.1171875 144.38086 A 2.1606417 2.1606417 0 0 0 5.1738281 144.44141 A 2.1606424 2.1606424 0 0 0 5.2734375 144.54297 A 2.1606417 2.1606417 0 0 0 5.3261719 144.58984 A 2.1606424 2.1606424 0 0 0 5.4296875 144.67578 A 2.1606417 2.1606417 0 0 0 5.5136719 144.73633 A 2.1606424 2.1606424 0 0 0 5.6113281 144.80078 A 2.1606417 2.1606417 0 0 0 5.703125 144.85352 A 2.1606424 2.1606424 0 0 0 5.78125 144.89648 A 2.1606417 2.1606417 0 0 0 5.9433594 144.9668 A 2.1606424 2.1606424 0 0 0 5.9726562 144.98047 A 2.1606417 2.1606417 0 0 0 6.1464844 145.03711 A 2.1606424 2.1606424 0 0 0 6.1777344 145.04688 A 2.1606417 2.1606417 0 0 0 6.3203125 145.08008 A 2.1606424 2.1606424 0 0 0 6.4101562 145.09766 A 2.1606417 2.1606417 0 0 0 6.5292969 145.11133 A 2.1606424 2.1606424 0 0 0 6.6171875 145.11914 A 2.1606417 2.1606417 0 0 0 6.7460938 145.125 L 39.421875 145.125 A 2.1602139 2.1602139 0 0 0 42.119141 143.35547 A 2.1606417 2.1606417 0 0 0 42.132812 143.26953 A 2.1602139 2.1602139 0 0 0 42.136719 143.24023 L 46.130859 112.30273 L 50.099609 93.289062 A 2.1602139 2.1602139 0 0 0 50.119141 92.441406 C 51.371234 91.90299 52.255859 90.654138 52.255859 89.212891 C 52.255859 88.057051 51.679763 87.03488 50.808594 86.394531 A 2.1602139 2.1602139 0 0 0 50.992188 85.556641 L 51.089844 81.439453 A 2.1602139 2.1602139 0 0 0 50.919922 80.523438 C 51.13743 80.355144 51.330596 80.161544 51.498047 79.943359 A 2.1602139 2.1602139 0 0 0 52.412109 80.115234 L 62.183594 79.865234 A 2.1602139 2.1602139 0 0 0 63.089844 79.646484 C 63.669219 80.32767 64.520029 80.771484 65.476562 80.771484 C 66.09022 80.771484 66.660287 80.585474 67.146484 80.277344 A 2.1602139 2.1602139 0 0 0 67.947266 80.75 L 88.802734 87.886719 C 88.935149 89.359272 89.693685 90.648914 90.791016 91.533203 L 82.148438 124.73047 L 71.572266 130.10742 A 2.1602139 2.1602139 0 0 0 70.884766 130.63086 C 70.392757 130.36648 69.840159 130.20312 69.246094 130.20312 C 68.116903 130.20312 67.116393 130.75446 66.472656 131.5918 L 60.890625 131.66992 A 2.1602139 2.1602139 0 0 0 60.884766 131.66992 C 60.26382 130.95329 59.359783 130.48828 58.345703 130.48828 C 56.492405 130.48829 54.970703 132.01194 54.970703 133.86523 C 54.970704 135.71853 56.492405 137.23828 58.345703 137.23828 C 59.391665 137.23828 60.320224 136.74346 60.941406 135.98828 A 2.1602139 2.1602139 0 0 0 60.949219 135.98828 L 66.535156 135.91016 C 67.180756 136.70382 68.151752 137.22461 69.246094 137.22461 C 71.006381 137.22461 72.460766 135.90012 72.703125 134.20312 A 2.1602139 2.1602139 0 0 0 73.53125 133.95703 L 84.972656 128.13867 A 2.1602139 2.1602139 0 0 0 84.982422 128.13477 A 2.1607746 2.1607746 0 0 0 85.037109 128.10352 A 2.1602139 2.1602139 0 0 0 86.167969 126.44141 L 94.962891 92.650391 C 97.470091 92.229841 99.410156 90.032503 99.410156 87.414062 C 99.410156 84.499673 97.008138 82.099609 94.09375 82.099609 C 92.569727 82.099609 91.197809 82.7655 90.224609 83.808594 L 69.345703 76.662109 A 2.1602139 2.1602139 0 0 0 68.496094 76.537109 A 2.1602139 2.1602139 0 0 0 68.421875 76.544922 C 67.977162 75.342021 66.826292 74.470703 65.476562 74.470703 C 64.463679 74.470703 63.565827 74.966682 62.988281 75.71875 A 2.1602139 2.1602139 0 0 0 62.072266 75.546875 L 52.302734 75.794922 A 2.1602139 2.1602139 0 0 0 51.394531 76.015625 C 51.189069 75.774398 50.955537 75.561544 50.6875 75.390625 A 2.1605973 2.1605973 0 0 0 50.675781 75.320312 L 48.082031 62.097656 C 48.531591 61.529711 48.810547 60.823029 48.810547 60.048828 C 48.810547 58.220915 47.308382 56.71875 45.480469 56.71875 C 43.652555 56.71875 42.150391 58.220915 42.150391 60.048828 C 42.150391 61.279747 42.840619 62.349535 43.84375 62.925781 L 46.435547 76.150391 A 2.1605973 2.1605973 0 0 0 46.453125 76.21875 C 46.081843 76.735247 45.857422 77.361955 45.857422 78.041016 C 45.857422 78.997739 46.302289 79.850309 46.984375 80.429688 A 2.1602139 2.1602139 0 0 0 46.769531 81.339844 L 46.671875 85.453125 A 2.1602139 2.1602139 0 0 0 46.810547 86.294922 C 45.864026 86.92545 45.234375 87.998674 45.234375 89.212891 C 45.234375 90.139635 45.607127 90.981533 46.201172 91.611328 A 2.1602139 2.1602139 0 0 0 45.871094 92.404297 L 41.898438 111.44336 A 2.1602139 2.1602139 0 0 0 41.863281 111.61914 A 2.1602139 2.1602139 0 0 0 41.832031 111.85156 L 38.097656 140.80273 L 8.90625 140.80273 L 8.90625 96.068359 L 22.898438 81.125 A 2.1602139 2.1602139 0 0 0 23.416016 80.464844 A 2.1602139 2.1602139 0 0 0 23.660156 79.679688 L 29.982422 51.726562 L 43.335938 36.619141 A 2.1602139 2.1602139 0 0 0 43.763672 35.908203 C 43.937658 35.933693 44.112255 35.960938 44.292969 35.960938 C 46.320237 35.960938 47.980469 34.300707 47.980469 32.273438 C 47.980469 30.246169 46.320237 28.582031 44.292969 28.582031 z M 44.292969 30.382812 C 45.347445 30.382813 46.181641 31.218961 46.181641 32.273438 C 46.181641 33.327915 45.347445 34.162109 44.292969 34.162109 C 44.035049 34.162109 43.791026 34.11045 43.568359 34.019531 A 2.1602139 2.1602139 0 0 0 42.658203 33.214844 C 42.49975 32.937589 42.402344 32.619875 42.402344 32.273438 C 42.402344 31.218961 43.238491 30.382812 44.292969 30.382812 z M 94.476562 46.703125 C 95.438599 46.797693 96.177734 47.586606 96.177734 48.576172 C 96.177734 49.425708 95.631256 50.124388 94.869141 50.367188 A 2.1602139 2.1602139 0 0 0 94.238281 50.275391 A 2.1602139 2.1602139 0 0 0 93.673828 50.357422 C 93.102118 50.164273 92.664069 49.712771 92.488281 49.132812 L 92.488281 48.021484 C 92.634362 47.538332 92.961843 47.143764 93.398438 46.912109 A 2.1603632 2.1603632 0 0 0 94.476562 46.703125 z M 67.066406 46.728516 A 2.1602922 2.1602922 0 0 0 68.183594 46.824219 C 68.876391 47.103362 69.357422 47.775946 69.357422 48.576172 C 69.357422 49.63065 68.523228 50.466797 67.46875 50.466797 C 66.414274 50.466797 65.576172 49.63065 65.576172 48.576172 C 65.576172 47.660069 66.209039 46.910214 67.066406 46.728516 z M 104.44141 49.705078 L 104.44141 53.353516 L 100.79102 53.353516 L 100.79102 53.376953 L 100.79102 54.496094 L 104.44141 54.496094 L 104.44141 58.146484 L 105.5957 58.146484 L 105.5957 54.496094 L 109.24609 54.496094 L 109.24609 53.353516 L 105.5957 53.353516 L 105.5957 49.705078 L 104.44141 49.705078 z M 104.48047 49.744141 L 105.55469 49.744141 L 105.55469 53.396484 L 109.20703 53.396484 L 109.20703 54.455078 L 105.55469 54.455078 L 105.55469 58.107422 L 104.48047 58.107422 L 104.48047 54.455078 L 100.83008 54.455078 L 100.83008 53.396484 L 104.48047 53.396484 L 104.48047 49.744141 z M 40.978516 51.859375 C 41.209933 51.859375 41.425085 51.916558 41.617188 52.009766 A 2.1602715 2.1602715 0 0 0 42.318359 52.765625 C 42.382311 52.92981 42.419922 53.109429 42.419922 53.298828 C 42.419922 54.10531 41.784999 54.738281 40.978516 54.738281 C 40.172034 54.738281 39.541016 54.10531 39.541016 53.298828 C 39.541016 52.492345 40.172034 51.859375 40.978516 51.859375 z M 36.480469 56.71875 C 34.652555 56.71875 33.150391 58.220915 33.150391 60.048828 C 33.150391 60.770486 33.389275 61.436656 33.785156 61.984375 A 2.1602139 2.1602139 0 0 0 33.414062 62.712891 L 29.917969 74.208984 A 2.1602139 2.1602139 0 0 0 29.828125 75.128906 C 28.678601 75.599944 27.859375 76.729319 27.859375 78.041016 C 27.859375 79.753292 29.252736 81.158384 30.958984 81.185547 A 2.1602139 2.1602139 0 0 0 31.369141 82.011719 L 35.759766 87.621094 A 2.1602139 2.1602139 0 0 0 36.402344 88.203125 C 36.303711 88.525397 36.236328 88.859719 36.236328 89.212891 C 36.236328 89.842679 36.418202 90.428405 36.712891 90.941406 A 2.1602139 2.1602139 0 0 0 36.201172 91.634766 L 31.488281 101.53516 L 29.285156 96.179688 C 29.575821 95.669653 29.755859 95.089979 29.755859 94.464844 C 29.755859 92.536986 28.173951 90.955078 26.246094 90.955078 C 24.318236 90.955078 22.734375 92.536986 22.734375 94.464844 C 22.734375 96.060816 23.825696 97.403995 25.292969 97.824219 L 28.369141 105.30469 A 2.1602139 2.1602139 0 0 0 28.371094 105.31055 C 28.124202 105.77882 27.970703 106.30281 27.970703 106.86523 C 27.970703 108.71853 29.492404 110.23828 31.345703 110.23828 C 33.199003 110.23828 34.71875 108.71853 34.71875 106.86523 C 34.71875 106.28453 34.556976 105.7448 34.294922 105.26562 A 2.1605817 2.1605817 0 0 0 34.832031 104.56445 L 40.099609 93.494141 A 2.1602139 2.1602139 0 0 0 40.320312 92.666016 C 41.976914 92.388081 43.253906 90.9445 43.253906 89.212891 C 43.253906 87.285032 41.673951 85.705078 39.746094 85.705078 C 39.68603 85.705078 39.629669 85.719625 39.570312 85.722656 A 2.1602139 2.1602139 0 0 0 39.160156 84.960938 L 34.773438 79.349609 A 2.1602139 2.1602139 0 0 0 34.068359 78.751953 C 34.122166 78.522647 34.158203 78.285857 34.158203 78.041016 C 34.158203 77.38968 33.95502 76.783602 33.611328 76.279297 A 2.1602139 2.1602139 0 0 0 34.050781 75.462891 L 37.546875 63.96875 A 2.1602139 2.1602139 0 0 0 37.642578 63.15625 C 38.901724 62.679697 39.810547 61.467101 39.810547 60.048828 C 39.810547 58.220915 38.308382 56.71875 36.480469 56.71875 z M 65.476562 58.271484 C 66.19457 58.271484 66.758484 58.808397 66.814453 59.509766 A 2.1602139 2.1602139 0 0 0 66.466797 60.541016 C 66.221759 60.80536 65.873095 60.970703 65.476562 60.970703 C 64.720319 60.970703 64.126953 60.377337 64.126953 59.621094 C 64.126953 59.551344 64.136719 59.484617 64.146484 59.417969 A 2.1602139 2.1602139 0 0 0 64.742188 58.486328 C 64.952606 58.351767 65.203475 58.271484 65.476562 58.271484 z M 36.480469 58.607422 C 37.28695 58.607422 37.919922 59.242346 37.919922 60.048828 C 37.919922 60.806905 37.358138 61.404639 36.621094 61.474609 A 2.1602139 2.1602139 0 0 0 35.558594 61.15625 C 35.242076 60.893865 35.039062 60.500408 35.039062 60.048828 C 35.039062 59.242346 35.673986 58.607422 36.480469 58.607422 z M 45.480469 58.607422 C 46.28695 58.607422 46.919922 59.242346 46.919922 60.048828 C 46.919922 60.193128 46.893288 60.328375 46.855469 60.458984 A 2.1602139 2.1602139 0 0 0 45.925781 60.253906 A 2.1602139 2.1602139 0 0 0 44.357422 60.949219 C 44.161538 60.703493 44.041016 60.393811 44.041016 60.048828 C 44.041016 59.242346 44.673986 58.607422 45.480469 58.607422 z M 15.275391 63.240234 A 2.1602139 2.1602139 0 0 0 16.425781 63.457031 C 16.863092 63.734451 17.150391 64.220285 17.150391 64.785156 C 17.150391 65.665664 16.456679 66.361328 15.576172 66.361328 C 14.695664 66.361328 14 65.665664 14 64.785156 C 14 64.007999 14.542566 63.377895 15.275391 63.240234 z M 93.470703 67.753906 A 2.1602139 2.1602139 0 0 0 94.751953 67.765625 C 95.412292 68.020346 95.867188 68.649297 95.867188 69.414062 C 95.867188 70.413505 95.093192 71.185547 94.09375 71.185547 C 93.107079 71.185547 92.347481 70.432041 92.328125 69.451172 A 2.1602139 2.1602139 0 0 0 92.71875 68.292969 C 92.913931 68.050889 93.169995 67.863155 93.470703 67.753906 z M 65.476562 76.271484 C 66.192962 76.271484 66.756308 76.806806 66.814453 77.505859 A 2.1602139 2.1602139 0 0 0 66.462891 78.546875 C 66.218069 78.80819 65.870515 78.972656 65.476562 78.972656 C 64.924653 78.972656 64.461216 78.65433 64.25 78.189453 A 2.1602139 2.1602139 0 0 0 64.222656 77.115234 C 64.419656 76.616988 64.900653 76.271484 65.476562 76.271484 z M 30.830078 76.708984 A 2.1602139 2.1602139 0 0 0 31.90625 77.033203 C 32.183083 77.278877 32.359375 77.63395 32.359375 78.041016 C 32.359375 78.27209 32.297799 78.485385 32.199219 78.673828 A 2.1602139 2.1602139 0 0 0 31.333984 79.349609 C 31.229422 79.374819 31.121117 79.392578 31.007812 79.392578 C 30.251568 79.392578 29.658203 78.797259 29.658203 78.041016 C 29.658203 77.345778 30.161509 76.794487 30.830078 76.708984 z M 50.099609 77.244141 C 50.151918 77.316116 50.197032 77.392418 50.234375 77.474609 A 2.1602139 2.1602139 0 0 0 50.261719 78.546875 C 50.129604 78.882364 49.869195 79.148778 49.537109 79.287109 A 2.1602139 2.1602139 0 0 0 48.947266 79.199219 A 2.1602139 2.1602139 0 0 0 48.429688 79.259766 C 47.971851 79.045858 47.658203 78.587817 47.658203 78.041016 C 47.658203 77.927711 47.675962 77.82136 47.701172 77.716797 A 2.1605973 2.1605973 0 0 0 50.099609 77.244141 z M 94.09375 85.642578 C 95.093192 85.642578 95.867188 86.41462 95.867188 87.414062 C 95.867188 88.361085 95.169186 89.096466 94.246094 89.171875 A 2.1602139 2.1602139 0 0 0 93.238281 88.876953 A 2.1602139 2.1602139 0 0 0 93.083984 88.878906 C 92.63105 88.56998 92.340018 88.053838 92.328125 87.451172 A 2.1602139 2.1602139 0 0 0 92.720703 86.292969 C 93.041501 85.896009 93.527423 85.642578 94.09375 85.642578 z M 57.744141 85.705078 C 55.816284 85.705078 54.236328 87.285032 54.236328 89.212891 C 54.236328 91.140748 55.816284 92.724609 57.744141 92.724609 C 58.439558 92.724609 59.087228 92.512026 59.634766 92.158203 A 2.1602139 2.1602139 0 0 0 60.349609 92.626953 L 74.316406 98.400391 L 74.113281 113.57227 L 61.902344 113.67383 A 2.1602139 2.1602139 0 0 0 61.027344 113.84375 C 60.40881 113.02838 59.439675 112.49023 58.345703 112.49023 C 56.492405 112.49023 54.970703 114.00998 54.970703 115.86328 C 54.970704 117.71658 56.492405 119.23828 58.345703 119.23828 C 59.460467 119.23828 60.448214 118.68168 61.064453 117.83984 A 2.1602139 2.1602139 0 0 0 61.939453 117.99219 L 76.232422 117.87305 A 2.1608247 2.1608247 0 0 0 76.333984 117.87109 A 2.1602139 2.1602139 0 0 0 78.412109 115.25391 L 78.648438 97.427734 A 2.1602139 2.1602139 0 0 0 78.132812 95.527344 A 2.1602139 2.1602139 0 0 0 76.988281 94.832031 L 62 88.634766 A 2.1602139 2.1602139 0 0 0 61.167969 88.458984 C 60.818552 86.890974 59.412445 85.705078 57.744141 85.705078 z M 39.746094 87.503906 C 40.70116 87.503906 41.455078 88.257824 41.455078 89.212891 C 41.455078 90.167956 40.70116 90.925781 39.746094 90.925781 C 39.689058 90.925781 39.635578 90.913479 39.580078 90.908203 A 2.1602139 2.1602139 0 0 0 38.517578 90.408203 C 38.219495 90.101174 38.035156 89.681303 38.035156 89.212891 C 38.035156 88.900783 38.121586 88.615088 38.263672 88.365234 A 2.1602139 2.1602139 0 0 0 38.265625 88.365234 A 2.1602139 2.1602139 0 0 0 39.275391 87.576172 C 39.425611 87.534044 39.581146 87.503906 39.746094 87.503906 z M 57.744141 87.503906 C 58.699207 87.503906 59.455078 88.257824 59.455078 89.212891 C 59.455078 89.238259 59.448322 89.262032 59.447266 89.287109 A 2.1602139 2.1602139 0 0 0 59.003906 90.373047 C 58.692571 90.711697 58.247583 90.925781 57.744141 90.925781 C 56.789075 90.925781 56.035156 90.167956 56.035156 89.212891 C 56.035156 88.257824 56.789075 87.503906 57.744141 87.503906 z M 48.203125 87.597656 A 2.1602139 2.1602139 0 0 0 49.369141 87.623047 C 50.008268 87.868777 50.455078 88.479281 50.455078 89.212891 C 50.455078 90.08549 49.823425 90.786804 48.986328 90.902344 A 2.1602139 2.1602139 0 0 0 47.974609 90.65625 A 2.1602139 2.1602139 0 0 0 47.839844 90.664062 C 47.356587 90.3639 47.037109 89.832166 47.037109 89.212891 C 47.037109 88.4495 47.522066 87.821741 48.203125 87.597656 z M 26.246094 92.753906 C 27.201159 92.753906 27.955078 93.509777 27.955078 94.464844 C 27.955078 94.608766 27.93274 94.746011 27.900391 94.878906 A 2.1602139 2.1602139 0 0 0 27.253906 94.783203 A 2.1602139 2.1602139 0 0 0 25.361328 95.925781 C 24.866299 95.628931 24.537109 95.093028 24.537109 94.464844 C 24.537109 93.509777 25.291027 92.753906 26.246094 92.753906 z M 15.576172 97.412109 C 13.722872 97.412109 12.199219 98.931858 12.199219 100.78516 C 12.199219 101.88903 12.74752 102.86755 13.576172 103.48438 A 2.1602139 2.1602139 0 0 0 13.576172 103.48828 L 14.169922 113.11133 C 13.450441 113.75588 12.986328 114.68048 12.986328 115.71484 C 12.986328 117.6427 14.566284 119.22266 16.494141 119.22266 C 17.592952 119.22266 18.567426 118.69893 19.212891 117.90039 L 28.748047 117.99805 A 2.1602139 2.1602139 0 0 0 28.757812 117.99805 C 29.378379 118.74797 30.303983 119.23828 31.345703 119.23828 C 33.199003 119.23828 34.71875 117.71658 34.71875 115.86328 C 34.71875 114.00998 33.199003 112.49023 31.345703 112.49023 C 30.327765 112.49023 29.421175 112.95901 28.800781 113.67969 A 2.1602139 2.1602139 0 0 0 28.791016 113.67969 L 19.257812 113.58203 C 19.035752 113.29574 18.780572 113.03677 18.482422 112.83008 L 17.890625 103.22461 C 18.539586 102.60841 18.951172 101.74349 18.951172 100.78516 C 18.951172 98.931858 17.42947 97.412109 15.576172 97.412109 z M 15.576172 99.210938 C 16.456679 99.210938 17.150391 99.904648 17.150391 100.78516 C 17.150391 101.06379 17.076059 101.32165 16.953125 101.54688 A 2.1602139 2.1602139 0 0 0 15.78125 101.16602 A 2.1602139 2.1602139 0 0 0 14.298828 101.71289 C 14.111399 101.45387 14 101.13464 14 100.78516 C 14 99.904648 14.695664 99.210938 15.576172 99.210938 z M 104.22656 101.50391 L 104.22656 104.62109 L 104.24805 104.62109 L 105.20312 104.62109 L 105.20312 101.50391 L 104.22656 101.50391 z M 104.26758 101.54492 L 105.16406 101.54492 L 105.16406 104.58203 L 104.26758 104.58203 L 104.26758 101.54492 z M 67.246094 103.45508 C 66.149544 103.45508 65.176787 103.97703 64.53125 104.77344 L 61.720703 104.74219 L 61.720703 104.38867 L 61.720703 103.48828 L 54.970703 103.48828 L 54.970703 110.23828 L 61.720703 110.23828 L 61.720703 109.0625 L 64.480469 109.09375 C 65.124521 109.92522 66.121004 110.47266 67.246094 110.47266 C 69.173951 110.47266 70.753906 108.8927 70.753906 106.96484 C 70.753906 105.03699 69.173951 103.45508 67.246094 103.45508 z M 67.246094 105.25391 C 68.20116 105.25391 68.955078 106.00978 68.955078 106.96484 C 68.955078 107.91991 68.20116 108.67383 67.246094 108.67383 C 66.846288 108.67383 66.486521 108.53618 66.197266 108.3125 A 2.1607808 2.1607808 0 0 0 66.226562 105.5918 C 66.510819 105.38155 66.860127 105.25391 67.246094 105.25391 z M 58.345703 105.29102 C 58.659138 105.29102 58.946144 105.38214 59.189453 105.53516 A 2.1602139 2.1602139 0 0 0 59.160156 108.21289 C 58.922948 108.35492 58.646785 108.43945 58.345703 108.43945 C 57.465195 108.43945 56.769531 107.74574 56.769531 106.86523 C 56.769531 105.98473 57.465195 105.29102 58.345703 105.29102 z M 32.212891 105.68945 A 2.1605817 2.1605817 0 0 0 32.46875 105.75391 C 32.748921 106.03707 32.919922 106.428 32.919922 106.86523 C 32.919921 107.74574 32.226211 108.43945 31.345703 108.43945 C 30.465195 108.43945 29.771484 107.74574 29.771484 106.86523 C 29.771484 106.77797 29.783732 106.69444 29.796875 106.61133 A 2.1602139 2.1602139 0 0 0 32.212891 105.68945 z M 31.345703 114.28906 C 32.226211 114.28906 32.919922 114.98277 32.919922 115.86328 C 32.919921 116.74379 32.226211 117.43945 31.345703 117.43945 C 31.032604 117.43945 30.745101 117.34803 30.501953 117.19531 A 2.1602139 2.1602139 0 0 0 30.529297 114.51758 C 30.766948 114.37478 31.043748 114.28906 31.345703 114.28906 z M 58.345703 114.28906 C 59.00037 114.28906 59.549134 114.67366 59.789062 115.23242 A 2.1602139 2.1602139 0 0 0 59.800781 116.46875 C 59.567376 117.04247 59.011119 117.43945 58.345703 117.43945 C 57.465195 117.43945 56.769531 116.74379 56.769531 115.86328 C 56.769531 114.98277 57.465195 114.28906 58.345703 114.28906 z M 15.054688 114.79102 A 2.1602139 2.1602139 0 0 0 17.097656 115.06641 A 2.1602139 2.1602139 0 0 0 17.482422 117.11133 C 17.203967 117.30671 16.86541 117.42383 16.494141 117.42383 C 15.539075 117.42383 14.785156 116.66991 14.785156 115.71484 C 14.785156 115.37185 14.885818 115.05692 15.054688 114.79102 z M 16.494141 121.20312 C 14.566284 121.20312 12.986328 122.78699 12.986328 124.71484 C 12.986328 126.6427 14.566284 128.22461 16.494141 128.22461 C 17.592652 128.22461 18.567416 127.70119 19.212891 126.90234 L 28.748047 126.99609 A 2.1602139 2.1602139 0 0 0 28.755859 126.99609 C 29.376414 127.74791 30.303 128.24023 31.345703 128.24023 C 33.199003 128.24023 34.71875 126.71659 34.71875 124.86328 C 34.71875 123.00998 33.199003 121.48828 31.345703 121.48828 C 30.327765 121.48828 29.421175 121.95706 28.800781 122.67773 A 2.1602139 2.1602139 0 0 0 28.791016 122.67773 L 19.257812 122.58008 C 18.61365 121.74984 17.617711 121.20312 16.494141 121.20312 z M 58.345703 121.48828 C 56.492405 121.48828 54.970703 123.00998 54.970703 124.86328 C 54.970704 126.71659 56.492405 128.24023 58.345703 128.24023 C 60.199003 128.24023 61.720703 126.71659 61.720703 124.86328 C 61.720703 123.00998 60.199003 121.48828 58.345703 121.48828 z M 16.494141 123.00586 C 16.892753 123.00586 17.252174 123.14277 17.541016 123.36523 A 2.1607516 2.1607516 0 0 0 17.515625 126.08398 C 17.231001 126.29473 16.881084 126.42383 16.494141 126.42383 C 15.539075 126.42383 14.785156 125.66991 14.785156 124.71484 C 14.785156 123.75978 15.539075 123.00586 16.494141 123.00586 z M 31.345703 123.28906 C 32.226211 123.28906 32.919922 123.98277 32.919922 124.86328 C 32.919921 125.74379 32.226211 126.43945 31.345703 126.43945 C 31.032268 126.43945 30.745262 126.34873 30.501953 126.19531 A 2.1602139 2.1602139 0 0 0 30.529297 123.51758 C 30.766991 123.37471 31.043663 123.28906 31.345703 123.28906 z M 58.345703 123.28906 C 59.226211 123.28906 59.919922 123.98277 59.919922 124.86328 C 59.919922 125.74379 59.226211 126.43945 58.345703 126.43945 C 57.465195 126.43945 56.769531 125.74379 56.769531 124.86328 C 56.769531 123.98277 57.465195 123.28906 58.345703 123.28906 z M 16.494141 130.20508 C 14.566284 130.20508 12.986328 131.78504 12.986328 133.71289 C 12.986328 135.64075 14.566284 137.22461 16.494141 137.22461 C 17.592952 137.22461 18.567426 136.69961 19.212891 135.90039 L 28.748047 135.99805 A 2.1602139 2.1602139 0 0 0 28.757812 135.99805 C 29.378379 136.74797 30.303983 137.23828 31.345703 137.23828 C 33.199003 137.23828 34.71875 135.71853 34.71875 133.86523 C 34.71875 132.01194 33.199003 130.48828 31.345703 130.48828 C 30.326996 130.48828 29.419241 130.9574 28.798828 131.67969 A 2.1602139 2.1602139 0 0 0 28.791016 131.67969 L 19.259766 131.58203 C 18.615674 130.75124 17.618694 130.20508 16.494141 130.20508 z M 16.494141 132.00391 C 16.877079 132.00391 17.224711 132.12916 17.507812 132.33594 A 2.1602139 2.1602139 0 0 0 17.482422 135.11328 C 17.204153 135.30868 16.86496 135.42383 16.494141 135.42383 C 15.539075 135.42383 14.785156 134.66796 14.785156 133.71289 C 14.785156 132.75783 15.539075 132.00391 16.494141 132.00391 z M 69.246094 132.00391 C 69.687556 132.00391 70.081896 132.16993 70.382812 132.4375 A 2.1602139 2.1602139 0 0 0 70.9375 133.53516 C 70.943511 133.59439 70.955078 133.65187 70.955078 133.71289 C 70.955078 134.66796 70.20116 135.42383 69.246094 135.42383 C 68.876276 135.42383 68.53762 135.30967 68.259766 135.11523 A 2.1602139 2.1602139 0 0 0 68.224609 132.3418 C 68.509064 132.1315 68.859601 132.00391 69.246094 132.00391 z M 31.345703 132.28906 C 32.226211 132.28906 32.919922 132.98472 32.919922 133.86523 C 32.919921 134.74573 32.226211 135.43945 31.345703 135.43945 C 31.03232 135.43945 30.745237 135.34829 30.501953 135.19531 A 2.1602139 2.1602139 0 0 0 30.53125 132.51953 C 30.768629 132.37721 31.044285 132.28906 31.345703 132.28906 z M 58.345703 132.28906 C 58.646164 132.28906 58.921312 132.37609 59.158203 132.51758 A 2.1602139 2.1602139 0 0 0 59.195312 135.19141 C 58.950816 135.34669 58.66163 135.43945 58.345703 135.43945 C 57.465195 135.43945 56.769531 134.74573 56.769531 133.86523 C 56.769531 132.98472 57.465195 132.28906 58.345703 132.28906 z M 95.496094 133.04688 C 93.332682 133.04688 91.578125 134.79948 91.578125 136.96289 C 91.578125 139.1263 93.332682 140.88086 95.496094 140.88086 C 97.659507 140.88086 99.412109 139.1263 99.412109 136.96289 C 99.412109 134.79948 97.659507 133.04688 95.496094 133.04688 z M 95.496094 133.08594 C 97.637889 133.08594 99.373047 134.82109 99.373047 136.96289 C 99.373047 139.10469 97.637889 140.8418 95.496094 140.8418 C 93.3543 140.8418 91.619141 139.10469 91.619141 136.96289 C 91.619141 134.82109 93.3543 133.08594 95.496094 133.08594 z "
     transform="matrix(0.80000076,0,0,0.80000076,-1.4038099e-4,0)"
     id="boardoutline" />
</svg>
