<?xml version='1.0' encoding='UTF-8' standalone='no'?>
<!-- Created with Fritzing (http://www.fritzing.org/) -->
<svg xmlns="http://www.w3.org/2000/svg" baseProfile="tiny" viewBox="0 0 88.7326 120.333" width="1.2324in"  height="1.67129in" version="1.2" x="0in" xmlns:svg="http://www.w3.org/2000/svg" y="0in">
 <g transform="matrix(-1, 0, 0, 1, 88.7326, 0)">
  <g partID="57380">
   <g id="board" >
    <rect width="88.1566" id="boardoutline" stroke="black" stroke-width="0.5"  height="119.757" fill-opacity="0.5" fill="none" x="0.288" y="0.288"/>
   </g>
  </g>
  <g partID="854367550">
   <g transform="translate(33.7245,63.4594)">
    <g transform="matrix(-4.73546e-17,-1,1,-4.73546e-17,0,0)">
     <g id="copper0" >
      <g id="copper1" >
       <circle id="connector0pin" r="1.8" stroke="black" stroke-width="2.16"  cx="2.88" cy="2.88" fill="black"/>
       <circle id="connector1pin" r="1.8" stroke="black" stroke-width="2.16"  cx="17.28" cy="2.88" fill="black"/>
      </g>
     </g>
    </g>
   </g>
  </g>
  <g partID="854368410">
   <g transform="translate(45.0021,48.5499)">
    <g transform="matrix(1,-1.11022e-16,1.11022e-16,1,0,0)">
     <g id="copper0" >
      <g id="copper1" >
       <circle id="connector0pin" r="1.8" stroke="black" stroke-width="2.16"  cx="2.88" cy="2.88" fill="black"/>
       <circle id="connector1pin" r="1.8" stroke="black" stroke-width="2.16"  cx="17.28" cy="2.88" fill="black"/>
      </g>
     </g>
    </g>
   </g>
  </g>
  <g partID="855054300">
   <g transform="translate(10.2789,35.2606)">
    <g id="copper0" >
     <rect width="4.464" stroke="black" stroke-width="2.16"  height="4.464" fill="black" x="0.72" y="1.368"/>
     <circle id="connector0pin" r="2.232" stroke="black" stroke-width="2.16"  cx="3.024" cy="3.6" fill="black"/>
     <circle id="connector1pin" r="2.232" stroke="black" stroke-width="2.16"  cx="24.48" cy="3.6" fill="black"/>
    </g>
   </g>
  </g>
  <g partID="855054310">
   <g transform="translate(81.0125,46.979)">
    <g transform="matrix(0,1,-1,0,0,0)">
     <g id="copper0" >
      <g id="copper1" >
       <!-- <rect width="55" x="10" y="15.5" fill="none" height="55" stroke="rgb(255, 191, 0)" stroke-width="20" />  -->
       <circle id="connector0pin" stroke="black" r="1.98" stroke-width="2.16"  cx="2.7" cy="3.096" fill="black"/>
       <circle id="connector1pin" stroke="black" r="1.98" stroke-width="2.16"  cx="31.5" cy="3.096" fill="black"/>
      </g>
     </g>
    </g>
   </g>
  </g>
  <g partID="855199830">
   <g transform="translate(39.3421,25.1125)">
    <g id="copper0" >
     <rect width="4.464" stroke="black" stroke-width="2.16"  height="4.464" fill="black" x="6.408" y="12.168"/>
     <circle id="connector0pad" r="2.232" stroke="black" stroke-width="2.16"  cx="8.64" cy="14.4" fill="black"/>
     <circle id="connector1pad" r="2.232" stroke="black" stroke-width="2.16"  cx="15.84" cy="14.4" fill="black"/>
     <circle id="connector2pad" r="2.232" stroke="black" stroke-width="2.16"  cx="23.04" cy="14.4" fill="black"/>
    </g>
   </g>
  </g>
  <g partID="855054320">
   <g transform="translate(69.9757,-0.383752)">
    <g transform="matrix(0,1,-1,0,0,0)">
     <g id="copper0" >
      <rect width="4.464" stroke="black" stroke-width="2.16"  height="4.464" fill="black" x="6.408" y="12.168"/>
      <circle id="connector0pad" r="2.232" stroke="black" stroke-width="2.16"  cx="8.64" cy="14.4" fill="black"/>
      <circle id="connector1pad" r="2.232" stroke="black" stroke-width="2.16"  cx="15.84" cy="14.4" fill="black"/>
      <circle id="connector2pad" r="2.232" stroke="black" stroke-width="2.16"  cx="23.04" cy="14.4" fill="black"/>
     </g>
    </g>
   </g>
  </g>
  <g partID="855148470">
   <g transform="translate(37.7365,81.1715)">
    <g id="copper0" >
     <rect width="3.96" id="square" stroke="black" stroke-width="2.16"  height="3.96" fill="black" x="2.34" y="2.34"/>
     <circle id="connector0pin" r="1.98" stroke="black" stroke-width="2.16"  cx="4.32" cy="4.32" fill="black"/>
     <circle id="connector7pin" r="1.98" stroke="black" stroke-width="2.16"  cx="25.92" cy="4.32" fill="black"/>
     <circle id="connector1pin" r="1.98" stroke="black" stroke-width="2.16"  cx="4.32" cy="11.52" fill="black"/>
     <circle id="connector6pin" r="1.98" stroke="black" stroke-width="2.16"  cx="25.92" cy="11.52" fill="black"/>
     <circle id="connector2pin" r="1.98" stroke="black" stroke-width="2.16"  cx="4.32" cy="18.72" fill="black"/>
     <circle id="connector5pin" r="1.98" stroke="black" stroke-width="2.16"  cx="25.92" cy="18.72" fill="black"/>
     <circle id="connector3pin" r="1.98" stroke="black" stroke-width="2.16"  cx="4.32" cy="25.92" fill="black"/>
     <circle id="connector4pin" r="1.98" stroke="black" stroke-width="2.16"  cx="25.92" cy="25.92" fill="black"/>
    </g>
   </g>
  </g>
  <g partID="855183870">
   <g transform="translate(7.61808,104.853)">
    <g id="copper0" >
     <circle id="nonconn0" r="3.11811" stroke="black" stroke-width="0.72"  cx="4.71811" cy="4.71811" fill="black"/>
    </g>
   </g>
  </g>
  <g partID="855183900">
   <g transform="translate(72.8181,6.85333)">
    <g id="copper0" >
     <circle id="nonconn0" r="3.11811" stroke="black" stroke-width="0.72"  cx="4.71811" cy="4.71811" fill="black"/>
    </g>
   </g>
  </g>
  <g partID="855201140">
   <g transform="translate(31.7461,74.4467)">
    <g transform="matrix(0,-1,1,0,0,0)">
     <g id="copper0" >
      <circle id="connector0pin" r="2.088" stroke="black" stroke-width="2.16"  cx="5.04" cy="5.04" fill="black"/>
      <circle id="connector1pin" r="2.088" stroke="black" stroke-width="2.16"  cx="5.04" cy="12.24" fill="black"/>
      <circle id="connector2pin" r="2.088" stroke="black" stroke-width="2.16"  cx="5.04" cy="19.44" fill="black"/>
      <circle id="connector3pin" r="2.088" stroke="black" stroke-width="2.16"  cx="5.04" cy="26.64" fill="black"/>
     </g>
    </g>
   </g>
  </g>
  <g partID="855193080">
   <g transform="translate(-0.94352,46.5315)">
    <g id="copper0" >
     <rect width="5.66929" id="square" stroke="black" stroke-width="3.55465"  height="5.66929" x="11.5654" fill="black" y="6.16535"/>
     <circle id="connector0pin" r="2.83465" stroke="black" stroke-width="3.55465"  cx="14.4" cy="9" fill="black"/>
     <circle id="connector1pin" r="2.83465" stroke="black" stroke-width="3.55465"  cx="14.4" cy="23.4" fill="black"/>
    </g>
   </g>
  </g>
  <g partID="855194510">
   <g transform="translate(41.5765,-0.508544)">
    <g transform="matrix(0,1,-1,0,0,0)">
     <g id="copper0" >
      <rect width="5.66929" id="square" stroke="black" stroke-width="3.55465"  height="5.66929" x="11.5654" fill="black" y="6.16535"/>
      <circle id="connector0pin" r="2.83465" stroke="black" stroke-width="3.55465"  cx="14.4" cy="9" fill="black"/>
      <circle id="connector1pin" r="2.83465" stroke="black" stroke-width="3.55465"  cx="14.4" cy="23.4" fill="black"/>
     </g>
    </g>
   </g>
  </g>
  <g partID="855189000">
   <g transform="translate(70.4965,87.5315)">
    <g id="copper0" >
     <circle id="connector0pin" r="2.088" stroke="black" stroke-width="2.16"  cx="5.04" cy="5.04" fill="black"/>
     <circle id="connector1pin" r="2.088" stroke="black" stroke-width="2.16"  cx="5.04" cy="12.24" fill="black"/>
     <circle id="connector2pin" r="2.088" stroke="black" stroke-width="2.16"  cx="5.04" cy="19.44" fill="black"/>
    </g>
   </g>
  </g>
  <g partID="855202470">
   <g transform="translate(28.3893,93.6419)">
    <g id="copper0" >
     <circle id="connector0pin" r="2.088" stroke="black" stroke-width="2.16"  cx="5.04" cy="5.04" fill="black"/>
    </g>
   </g>
  </g>
  <g partID="855189470">
   <g transform="translate(28.2965,101.931)">
    <g id="copper0" >
     <circle id="connector0pin" r="2.088" stroke="black" stroke-width="2.16"  cx="5.04" cy="5.04" fill="black"/>
    </g>
   </g>
  </g>
  <g partID="855189840">
   <g transform="translate(62.6965,70.5315)">
    <g id="copper0" >
     <circle id="connector0pin" r="2.088" stroke="black" stroke-width="2.16"  cx="5.04" cy="5.04" fill="black"/>
    </g>
   </g>
  </g>
  <g partID="855190050">
   <g transform="translate(29.8965,80.5315)">
    <g id="copper0" >
     <circle id="connector0pin" r="2.088" stroke="black" stroke-width="2.16"  cx="5.04" cy="5.04" fill="black"/>
    </g>
   </g>
  </g>
 </g>
</svg>
