<?xml version="1.0" encoding="UTF-8" standalone="no"?>
<!-- Created with Fritzing (http://www.fritzing.org/) -->

<svg
   xmlns:dc="http://purl.org/dc/elements/1.1/"
   xmlns:cc="http://creativecommons.org/ns#"
   xmlns:rdf="http://www.w3.org/1999/02/22-rdf-syntax-ns#"
   xmlns:svg="http://www.w3.org/2000/svg"
   xmlns="http://www.w3.org/2000/svg"
   xmlns:sodipodi="http://sodipodi.sourceforge.net/DTD/sodipodi-0.dtd"
   xmlns:inkscape="http://www.inkscape.org/namespaces/inkscape"
   viewBox="0 0 88.7326 120.333"
   width="1.2324in"
   height="1.67129in"
   version="1.2"
   x="0in"
   y="0in"
   id="svg2"
   inkscape:version="0.91 r13725"
   sodipodi:docname="arroseur_pcb_etch_copper_bottom_mirror.svg">
  <metadata
     id="metadata398">
    <rdf:RDF>
      <cc:Work
         rdf:about="">
        <dc:format>image/svg+xml</dc:format>
        <dc:type
           rdf:resource="http://purl.org/dc/dcmitype/StillImage" />
      </cc:Work>
    </rdf:RDF>
  </metadata>
  <defs
     id="defs396" />
  <sodipodi:namedview
     pagecolor="#ffffff"
     bordercolor="#666666"
     borderopacity="1"
     objecttolerance="10"
     gridtolerance="10"
     guidetolerance="10"
     inkscape:pageopacity="0"
     inkscape:pageshadow="2"
     inkscape:window-width="1592"
     inkscape:window-height="1117"
     id="namedview394"
     showgrid="false"
     inkscape:zoom="4.77"
     inkscape:cx="51.660566"
     inkscape:cy="77.565618"
     inkscape:window-x="0"
     inkscape:window-y="23"
     inkscape:window-maximized="0"
     inkscape:current-layer="svg2" />
  <path
     style="color:#000000;font-style:normal;font-variant:normal;font-weight:normal;font-stretch:normal;font-size:medium;line-height:normal;font-family:sans-serif;text-indent:0;text-align:start;text-decoration:none;text-decoration-line:none;text-decoration-style:solid;text-decoration-color:#000000;letter-spacing:normal;word-spacing:normal;text-transform:none;direction:ltr;block-progression:tb;writing-mode:lr-tb;baseline-shift:baseline;text-anchor:start;white-space:normal;clip-rule:nonzero;display:inline;overflow:visible;visibility:visible;opacity:1;isolation:auto;mix-blend-mode:normal;color-interpolation:sRGB;color-interpolation-filters:linearRGB;solid-color:#000000;solid-opacity:1;fill:#000000;fill-opacity:1;fill-rule:nonzero;stroke:none;stroke-width:0.5;stroke-linecap:butt;stroke-linejoin:miter;stroke-miterlimit:4;stroke-dasharray:none;stroke-dashoffset:0;stroke-opacity:1;color-rendering:auto;image-rendering:auto;shape-rendering:auto;text-rendering:auto;enable-background:accumulate"
     d="M 0.046875 0.046875 L 0.046875 150.36914 L 110.86914 150.36914 L 110.86914 0.359375 L 110.86914 0.046875 L 0.046875 0.046875 z M 0.671875 0.671875 L 110.24414 0.671875 L 110.24414 149.74414 L 0.671875 149.74414 L 0.671875 0.671875 z M 101.17773 4.21875 L 101.17773 4.2382812 L 101.17773 15.447266 L 102.73242 15.447266 L 102.73242 10.949219 L 104.61523 10.949219 C 105.8721 10.949219 106.82447 10.666438 107.46875 10.097656 C 108.11803 9.5289089 108.43945 8.6879703 108.43945 7.5800781 C 108.43945 6.4821414 108.11798 5.6468337 107.46875 5.078125 C 106.82448 4.504322 105.87213 4.21875 104.61523 4.21875 L 101.17773 4.21875 z M 101.21875 4.2578125 L 104.61523 4.2578125 C 105.86607 4.2578125 106.80683 4.5422557 107.44141 5.1074219 C 108.08101 5.6676913 108.40039 6.4899953 108.40039 7.5800781 C 108.40039 8.6801876 108.08096 9.5081285 107.44141 10.068359 C 106.80685 10.628556 105.8661 10.910156 104.61523 10.910156 L 102.69141 10.910156 L 102.69141 15.404297 L 101.21875 15.404297 L 101.21875 4.2578125 z M 102.69141 5.4609375 L 102.69141 5.4824219 L 102.69141 9.7070312 L 104.61523 9.7070312 C 105.32305 9.7070312 105.87264 9.5212073 106.26172 9.1523438 C 106.65084 8.7834387 106.8457 8.2582702 106.8457 7.5800781 C 106.8457 6.9068531 106.6508 6.3844986 106.26172 6.015625 C 105.87264 5.6467615 105.32305 5.4609375 104.61523 5.4609375 L 102.69141 5.4609375 z M 102.73242 5.5019531 L 104.61523 5.5019531 C 105.31615 5.5019531 105.85219 5.6844455 106.23242 6.0449219 C 106.61264 6.405388 106.80469 6.9145149 106.80469 7.5800781 C 106.80469 8.2506654 106.61261 8.7626121 106.23242 9.1230469 C 105.85219 9.4835233 105.31615 9.6660156 104.61523 9.6660156 L 102.73242 9.6660156 L 102.73242 5.5019531 z M 37.755859 6.6308594 L 37.755859 8.6464844 A 2.1602139 2.1602139 0 0 0 37.685547 8.640625 A 2.1602139 2.1602139 0 0 0 37.320312 8.6601562 L 30.152344 9.5546875 A 2.1602139 2.1602139 0 0 0 28.375 10.417969 A 2.1603102 2.1603102 0 0 0 28.34375 10.457031 A 2.1602139 2.1602139 0 0 0 28.248047 10.599609 A 2.1603102 2.1603102 0 0 0 28.224609 10.636719 L 13.830078 33.792969 A 2.1602139 2.1602139 0 0 0 13.544922 34.285156 A 2.1602139 2.1602139 0 0 0 13.351562 35.412109 L 11.632812 58.371094 A 2.1602139 2.1602139 0 0 0 11.726562 59.253906 C 10.781118 59.854814 10.144531 60.905576 10.144531 62.099609 C 10.144531 63.952908 11.668186 65.472656 13.521484 65.472656 C 15.374784 65.472656 16.894531 63.952908 16.894531 62.099609 C 16.894531 61.085327 16.429101 60.181499 15.712891 59.560547 A 2.1602139 2.1602139 0 0 0 15.939453 58.693359 L 17.652344 35.826172 L 31.371094 13.757812 L 37.755859 12.958984 L 37.755859 14.011719 L 45.136719 14.011719 L 45.136719 6.6308594 L 38.658203 6.6308594 L 37.755859 6.6308594 z M 41.445312 8.4296875 C 42.49979 8.4296875 43.335938 9.265835 43.335938 10.320312 C 43.335938 11.37479 42.49979 12.208984 41.445312 12.208984 C 40.691531 12.208984 40.056643 11.778963 39.751953 11.150391 A 2.1602139 2.1602139 0 0 0 39.751953 11.148438 A 2.1602139 2.1602139 0 0 0 39.595703 9.9296875 C 39.772308 9.0665438 40.524833 8.4296875 41.445312 8.4296875 z M 13.996094 10.546875 C 11.832681 10.546875 10.078125 12.301431 10.078125 14.464844 C 10.078125 16.628255 11.832681 18.380859 13.996094 18.380859 C 16.159505 18.380859 17.912109 16.628255 17.912109 14.464844 C 17.912109 12.301431 16.159505 10.546875 13.996094 10.546875 z M 13.996094 10.585938 C 16.137888 10.585938 17.873047 12.323048 17.873047 14.464844 C 17.873047 16.606638 16.137888 18.341797 13.996094 18.341797 C 11.854298 18.341797 10.117188 16.606638 10.117188 14.464844 C 10.117187 12.323048 11.854298 10.585938 13.996094 10.585938 z M 64.880859 12.048828 L 64.880859 15.5625 L 45.181641 16.902344 A 2.1602139 2.1602139 0 0 0 44.369141 17.099609 C 43.692682 16.213636 42.637137 15.628906 41.445312 15.628906 C 39.418043 15.628906 37.755859 17.293044 37.755859 19.320312 C 37.755859 21.347582 39.418043 23.009766 41.445312 23.009766 C 42.814084 23.009766 44.003375 22.243043 44.640625 21.126953 A 2.1602139 2.1602139 0 0 0 45.474609 21.210938 L 64.880859 19.890625 L 64.880859 22.677734 L 67.5625 22.677734 L 65.654297 44.511719 A 2.1602922 2.1602922 0 0 0 65.744141 45.337891 C 64.582696 45.962238 63.777344 47.17421 63.777344 48.576172 C 63.777344 50.603441 65.441482 52.265625 67.46875 52.265625 C 69.496019 52.265625 71.158203 50.603441 71.158203 48.576172 C 71.158203 47.401572 70.590135 46.361328 69.726562 45.683594 A 2.1602922 2.1602922 0 0 0 69.958984 44.886719 L 71.900391 22.677734 L 75.509766 22.677734 L 75.509766 12.048828 L 66.652344 12.048828 L 64.880859 12.048828 z M 88.195312 12.048828 C 85.280923 12.048828 82.880859 14.448893 82.880859 17.363281 C 82.880858 19.867834 84.655611 21.988962 87.003906 22.537109 L 91.367188 44.884766 L 90.685547 44.884766 L 90.685547 47.798828 C 90.630849 48.050283 90.597656 48.309143 90.597656 48.576172 C 90.597656 48.843201 90.630849 49.102134 90.685547 49.353516 L 90.685547 52.265625 L 92.101562 52.265625 A 2.1602139 2.1602139 0 0 0 92.091797 52.445312 L 91.984375 64.099609 L 88.779297 64.099609 L 88.779297 64.9375 L 69.074219 56.976562 A 2.1602139 2.1602139 0 0 0 68.232422 56.806641 A 2.1602139 2.1602139 0 0 0 68.158203 56.810547 C 67.760896 55.525471 66.571272 54.574219 65.162109 54.574219 C 64.777133 54.574219 64.410649 54.654645 64.068359 54.783203 A 2.1602139 2.1602139 0 0 0 63.361328 54.167969 L 55.386719 49.494141 A 2.1602139 2.1602139 0 0 0 54.628906 49.212891 L 54.628906 46.601562 L 54.628906 45.701172 L 47.248047 45.701172 L 47.248047 53.080078 L 52.992188 53.080078 A 2.1602139 2.1602139 0 0 0 53.203125 53.220703 L 61.179688 57.892578 A 2.1602139 2.1602139 0 0 0 62.058594 58.208984 C 62.296166 59.709288 63.598996 60.873047 65.162109 60.873047 C 65.714987 60.873047 66.228229 60.717002 66.681641 60.462891 A 2.1602139 2.1602139 0 0 0 67.457031 60.980469 L 88.779297 69.595703 L 88.779297 74.728516 L 99.410156 74.728516 L 99.410156 65.871094 L 99.410156 64.099609 L 96.302734 64.099609 L 96.412109 52.484375 A 2.1602139 2.1602139 0 0 0 96.40625 52.265625 L 98.066406 52.265625 L 98.066406 45.785156 L 98.066406 44.884766 L 95.697266 44.884766 A 2.1603632 2.1603632 0 0 0 95.662109 44.34375 L 91.240234 21.697266 C 92.605771 20.731018 93.511719 19.146723 93.511719 17.363281 C 93.511719 14.448893 91.109701 12.048828 88.195312 12.048828 z M 70.195312 15.59375 C 71.194755 15.59375 71.96875 16.363838 71.96875 17.363281 C 71.96875 18.205844 71.415815 18.880988 70.644531 19.074219 A 2.1602139 2.1602139 0 0 0 69.810547 18.929688 A 2.1602139 2.1602139 0 0 0 69.449219 18.974609 C 69.048045 18.794083 68.730258 18.473906 68.560547 18.066406 A 2.1602139 2.1602139 0 0 0 68.486328 16.910156 C 68.681147 16.141891 69.354463 15.59375 70.195312 15.59375 z M 88.195312 15.59375 C 89.194754 15.59375 89.966797 16.363838 89.966797 17.363281 C 89.966797 18.02532 89.624252 18.582253 89.105469 18.886719 A 2.1602139 2.1602139 0 0 0 88.894531 18.876953 A 2.1602139 2.1602139 0 0 0 87.941406 19.109375 C 87.069234 18.989881 86.423828 18.27538 86.423828 17.363281 C 86.423828 16.363838 87.19587 15.59375 88.195312 15.59375 z M 41.445312 17.429688 C 42.22509 17.429688 42.882955 17.887665 43.173828 18.552734 A 2.1602139 2.1602139 0 0 0 43.257812 19.835938 C 43.036052 20.633146 42.319582 21.210938 41.445312 21.210938 C 40.390835 21.210938 39.556641 20.37479 39.556641 19.320312 C 39.556641 18.265836 40.390835 17.429688 41.445312 17.429688 z M 41.445312 24.630859 C 39.533729 24.630859 37.965862 26.11416 37.791016 27.982422 A 2.1602139 2.1602139 0 0 0 36.998047 28.232422 L 23.974609 35.134766 A 2.1602139 2.1602139 0 0 0 22.560547 36.947266 L 22.554688 36.992188 A 2.1607936 2.1607936 0 0 0 22.552734 37.017578 L 18.355469 73.849609 L 4.1464844 93.404297 A 2.1602139 2.1602139 0 0 0 3.5917969 94.619141 A 2.1604094 2.1604094 0 0 0 3.5917969 94.621094 A 2.1602139 2.1602139 0 0 0 3.5761719 94.941406 L 4.5859375 143.00977 A 2.1602139 2.1602139 0 0 0 4.5859375 143.01367 A 2.1606417 2.1606417 0 0 0 4.5878906 143.0625 A 2.1602139 2.1602139 0 0 0 7.1191406 145.125 L 39.501953 145.125 A 2.1602139 2.1602139 0 0 0 41.994141 143.7793 A 2.1606417 2.1606417 0 0 0 42.019531 143.71875 L 50.746094 122.31641 A 2.1602139 2.1602139 0 0 0 51.050781 121.35156 A 2.1602139 2.1602139 0 0 0 51.037109 120.77734 L 49.302734 90.339844 A 2.1602139 2.1602139 0 0 0 49.09375 89.5 C 49.909055 88.855096 50.445312 87.869494 50.445312 86.757812 C 50.445312 84.829956 48.861451 83.25 46.933594 83.25 C 45.005737 83.25 43.423828 84.829956 43.423828 86.757812 C 43.423828 88.012736 44.099635 89.113242 45.099609 89.734375 A 2.1602139 2.1602139 0 0 0 44.988281 90.585938 L 46.710938 120.77344 L 38.544922 140.80273 L 8.859375 140.80273 L 7.9121094 95.574219 L 21.994141 76.193359 A 2.1602139 2.1602139 0 0 0 22.466797 75.416016 A 2.1602139 2.1602139 0 0 0 22.613281 74.646484 L 26.724609 38.568359 L 39.021484 32.050781 A 2.1602139 2.1602139 0 0 0 39.673828 31.533203 C 40.202625 31.827219 40.801087 32.009766 41.445312 32.009766 C 43.472582 32.009766 45.136719 30.347582 45.136719 28.320312 C 45.136719 26.293043 43.472582 24.630859 41.445312 24.630859 z M 41.445312 26.429688 C 42.49979 26.429688 43.335938 27.265835 43.335938 28.320312 C 43.335938 29.37479 42.49979 30.208984 41.445312 30.208984 C 40.940832 30.208984 40.490947 30.014093 40.154297 29.699219 A 2.1602139 2.1602139 0 0 0 39.585938 28.625 C 39.57017 28.52552 39.556641 28.424687 39.556641 28.320312 C 39.556641 27.265835 40.390835 26.429688 41.445312 26.429688 z M 32.9375 45.701172 C 30.910232 45.701172 29.248047 47.361403 29.248047 49.388672 C 29.248047 50.684867 29.931332 51.827096 30.951172 52.486328 A 2.1602139 2.1602139 0 0 0 30.810547 53.298828 L 30.876953 60.955078 A 2.1602139 2.1602139 0 0 0 31.068359 61.875 C 30.369473 62.45442 29.912109 63.316756 29.912109 64.287109 C 29.912109 64.864487 30.081685 65.400043 30.357422 65.867188 A 2.1602139 2.1602139 0 0 0 29.855469 66.652344 L 24.669922 80.308594 A 2.1602139 2.1602139 0 0 0 24.472656 80.925781 A 2.1602139 2.1602139 0 0 0 24.439453 81.398438 L 24.1875 90.697266 A 2.1602171 2.1602171 0 0 0 24.330078 91.533203 C 23.372996 92.162657 22.734375 93.242541 22.734375 94.464844 C 22.734375 96.132292 23.920975 97.534935 25.488281 97.884766 A 2.1602139 2.1602139 0 0 0 25.660156 98.71875 L 27.988281 104.37891 A 2.1602139 2.1602139 0 0 0 28.470703 105.12891 C 28.160694 105.63884 27.970703 106.22941 27.970703 106.86523 C 27.970703 108.71853 29.492404 110.23828 31.345703 110.23828 C 33.199003 110.23828 34.71875 108.71853 34.71875 106.86523 C 34.71875 105.29649 33.624598 103.97563 32.166016 103.60352 A 2.1602139 2.1602139 0 0 0 31.982422 102.73633 L 29.654297 97.072266 A 2.1602139 2.1602139 0 0 0 29.189453 96.357422 C 29.544625 95.809584 29.755859 95.161704 29.755859 94.464844 C 29.755859 93.310525 29.181729 92.287719 28.3125 91.646484 A 2.1602171 2.1602171 0 0 0 28.505859 90.814453 L 28.751953 81.730469 L 33.894531 68.185547 A 2.1602139 2.1602139 0 0 0 34.039062 67.263672 C 35.293072 66.847704 36.212891 65.674014 36.212891 64.287109 C 36.212891 63.298923 35.739897 62.422757 35.019531 61.84375 A 2.1602139 2.1602139 0 0 0 35.195312 60.919922 L 35.132812 53.261719 A 2.1602139 2.1602139 0 0 0 34.978516 52.457031 C 35.970282 51.792779 36.628906 50.66285 36.628906 49.388672 C 36.628906 47.361403 34.964769 45.701172 32.9375 45.701172 z M 41.939453 45.701172 C 39.912185 45.701172 38.248047 47.361403 38.248047 49.388672 C 38.248047 50.674633 38.91863 51.810997 39.925781 52.472656 A 2.1602139 2.1602139 0 0 0 39.777344 53.28125 L 39.777344 57.75 A 2.1602139 2.1602139 0 0 0 40.564453 59.726562 A 2.1606423 2.1606423 0 0 0 40.595703 59.753906 A 2.1602139 2.1602139 0 0 0 40.601562 59.757812 A 2.1606423 2.1606423 0 0 0 40.626953 59.775391 A 2.1602139 2.1602139 0 0 0 40.720703 59.84375 L 40.753906 59.867188 A 2.1606423 2.1606423 0 0 0 40.775391 59.880859 L 47.080078 64.183594 A 2.1602139 2.1602139 0 0 0 47.9375 64.535156 C 48.027586 65.650907 48.700535 66.603133 49.65625 67.087891 A 2.1602139 2.1602139 0 0 0 49.664062 68.019531 L 53.037109 83.587891 A 2.1602139 2.1602139 0 0 0 53.363281 84.390625 C 52.785445 85.016796 52.423828 85.844922 52.423828 86.757812 C 52.423828 88.685669 54.005736 90.267578 55.933594 90.267578 C 57.861451 90.267578 59.443359 88.685669 59.443359 86.757812 C 59.443358 85.31192 58.553422 84.062211 57.294922 83.527344 A 2.1602139 2.1602139 0 0 0 57.294922 83.525391 A 2.1602139 2.1602139 0 0 0 57.257812 82.675781 L 54.476562 69.837891 L 61.197266 75.291016 A 2.1602139 2.1602139 0 0 0 62.011719 75.712891 C 62.011703 75.716928 62.009766 75.720568 62.009766 75.724609 C 62.009766 77.453645 63.433075 78.875 65.162109 78.875 C 65.714987 78.875 66.228229 78.717002 66.681641 78.462891 A 2.1602139 2.1602139 0 0 0 67.457031 78.982422 L 88.789062 87.601562 C 88.843522 89.128532 89.565318 90.484242 90.658203 91.423828 L 79.021484 130.79688 L 72.779297 131.27734 A 2.1602139 2.1602139 0 0 0 71.939453 131.49805 C 71.294352 130.71515 70.331763 130.20312 69.246094 130.20312 C 68.039635 130.20312 66.968801 130.82335 66.335938 131.75977 A 2.1608572 2.1608572 0 0 0 65.505859 131.60352 L 61.890625 131.6543 A 2.1602139 2.1602139 0 0 0 61.017578 131.83203 C 60.398573 131.02265 59.434393 130.48828 58.345703 130.48828 C 56.492405 130.48829 54.970703 132.01194 54.970703 133.86523 C 54.970704 135.71853 56.492405 137.23828 58.345703 137.23828 C 59.46841 137.23828 60.462949 136.67427 61.078125 135.82227 A 2.1602139 2.1602139 0 0 0 61.951172 135.97461 L 65.566406 135.92578 A 2.1608572 2.1608572 0 0 0 66.398438 135.74609 C 67.037512 136.63626 68.075419 137.22461 69.246094 137.22461 C 70.523487 137.22461 71.636354 136.52196 72.25 135.49219 A 2.1602139 2.1602139 0 0 0 73.111328 135.58398 L 80.835938 134.99023 A 2.1602139 2.1602139 0 0 0 80.912109 134.98047 A 2.1602678 2.1602678 0 0 0 81.013672 134.9668 A 2.1602139 2.1602139 0 0 0 81.111328 134.94922 A 2.1602678 2.1602678 0 0 0 81.226562 134.92188 A 2.1602139 2.1602139 0 0 0 81.332031 134.89062 A 2.1602678 2.1602678 0 0 0 81.419922 134.86133 A 2.1602139 2.1602139 0 0 0 81.539062 134.8125 A 2.1602678 2.1602678 0 0 0 81.630859 134.76953 A 2.1602139 2.1602139 0 0 0 81.699219 134.73242 A 2.1602678 2.1602678 0 0 0 81.847656 134.64648 A 2.1602139 2.1602139 0 0 0 81.878906 134.62305 A 2.1602678 2.1602678 0 0 0 82.021484 134.51953 A 2.1602139 2.1602139 0 0 0 82.033203 134.50781 A 2.1602678 2.1602678 0 0 0 82.183594 134.37695 A 2.1602139 2.1602139 0 0 0 82.203125 134.35547 A 2.1602678 2.1602678 0 0 0 82.330078 134.2168 A 2.1602139 2.1602139 0 0 0 82.34375 134.19922 A 2.1602678 2.1602678 0 0 0 82.458984 134.04492 A 2.1602139 2.1602139 0 0 0 82.46875 134.0293 A 2.1602678 2.1602678 0 0 0 82.570312 133.85938 A 2.1602139 2.1602139 0 0 0 82.578125 133.84375 A 2.1602678 2.1602678 0 0 0 82.664062 133.66406 A 2.1602139 2.1602139 0 0 0 82.671875 133.64258 A 2.1602678 2.1602678 0 0 0 82.742188 133.44922 L 94.791016 92.677734 C 97.381137 92.331419 99.410156 90.09215 99.410156 87.414062 C 99.410156 84.499673 97.008138 82.099609 94.09375 82.099609 C 92.672637 82.099609 91.379883 82.67679 90.421875 83.599609 L 69.074219 74.974609 A 2.1602139 2.1602139 0 0 0 68.232422 74.806641 A 2.1602139 2.1602139 0 0 0 68.158203 74.810547 C 67.760896 73.524872 66.571272 72.572266 65.162109 72.572266 C 64.935187 72.572266 64.713849 72.599994 64.5 72.646484 A 2.1602139 2.1602139 0 0 0 63.917969 71.935547 L 55.025391 64.720703 A 2.1602139 2.1602139 0 0 0 54.212891 64.298828 C 54.212906 64.294791 54.214844 64.29115 54.214844 64.287109 C 54.214844 62.558074 52.791536 61.136719 51.0625 61.136719 C 50.745535 61.136719 50.443667 61.198492 50.154297 61.287109 A 2.1602139 2.1602139 0 0 0 49.513672 60.615234 L 44.099609 56.921875 L 44.099609 53.28125 A 2.1602139 2.1602139 0 0 0 43.951172 52.470703 C 44.956431 51.808839 45.626953 50.673735 45.626953 49.388672 C 45.626953 47.361403 43.966722 45.701172 41.939453 45.701172 z M 94.476562 46.703125 C 95.438599 46.797693 96.177734 47.586606 96.177734 48.576172 C 96.177734 49.425708 95.631256 50.124388 94.869141 50.367188 A 2.1602139 2.1602139 0 0 0 94.238281 50.275391 A 2.1602139 2.1602139 0 0 0 93.673828 50.357422 C 93.102118 50.164273 92.664069 49.712771 92.488281 49.132812 L 92.488281 48.021484 C 92.634362 47.538332 92.961843 47.143764 93.398438 46.912109 A 2.1603632 2.1603632 0 0 0 94.476562 46.703125 z M 67.066406 46.728516 A 2.1602922 2.1602922 0 0 0 68.183594 46.824219 C 68.876391 47.103362 69.357422 47.775946 69.357422 48.576172 C 69.357422 49.63065 68.523228 50.466797 67.46875 50.466797 C 66.414274 50.466797 65.576172 49.63065 65.576172 48.576172 C 65.576172 47.660069 66.209039 46.910214 67.066406 46.728516 z M 32.9375 47.5 C 33.991978 47.5 34.830078 48.334194 34.830078 49.388672 C 34.830078 50.222874 34.301644 50.916461 33.560547 51.171875 A 2.1602139 2.1602139 0 0 0 33.558594 51.171875 A 2.1602139 2.1602139 0 0 0 32.919922 51.091797 A 2.1602139 2.1602139 0 0 0 32.353516 51.183594 C 31.592336 50.939643 31.046875 50.237546 31.046875 49.388672 C 31.046875 48.334194 31.883024 47.5 32.9375 47.5 z M 41.939453 47.5 C 42.993931 47.5 43.828125 48.334194 43.828125 49.388672 C 43.828125 50.229863 43.293289 50.925735 42.542969 51.175781 A 2.1602139 2.1602139 0 0 0 41.90625 51.091797 A 2.1602139 2.1602139 0 0 0 41.339844 51.177734 C 40.587011 50.929082 40.048828 50.231642 40.048828 49.388672 C 40.048828 48.334194 40.884977 47.5 41.939453 47.5 z M 50.9375 47.5 C 51.991978 47.5 52.828125 48.334194 52.828125 49.388672 C 52.828125 49.518495 52.813231 49.645488 52.789062 49.767578 A 2.1602139 2.1602139 0 0 0 52.787109 49.769531 A 2.1602139 2.1602139 0 0 0 52.175781 50.814453 C 51.844945 51.102232 51.416767 51.28125 50.9375 51.28125 C 49.883022 51.28125 49.048828 50.443148 49.048828 49.388672 C 49.048828 48.334194 49.883022 47.5 50.9375 47.5 z M 104.44141 49.705078 L 104.44141 53.353516 L 100.79102 53.353516 L 100.79102 53.373047 L 100.79102 54.496094 L 104.44141 54.496094 L 104.44141 58.146484 L 105.5957 58.146484 L 105.5957 54.496094 L 109.24609 54.496094 L 109.24609 53.353516 L 105.5957 53.353516 L 105.5957 49.705078 L 104.44141 49.705078 z M 104.48047 49.744141 L 105.55469 49.744141 L 105.55469 53.396484 L 109.20703 53.396484 L 109.20703 54.455078 L 105.55469 54.455078 L 105.55469 58.107422 L 104.48047 58.107422 L 104.48047 54.455078 L 100.83008 54.455078 L 100.83008 53.396484 L 104.48047 53.396484 L 104.48047 49.744141 z M 65.162109 56.375 C 65.901559 56.375 66.480276 56.943593 66.505859 57.675781 A 2.1602139 2.1602139 0 0 0 66.09375 58.703125 C 65.852661 58.932851 65.528505 59.074219 65.162109 59.074219 C 64.405866 59.074219 63.810547 58.480852 63.810547 57.724609 C 63.810547 57.693741 63.818363 57.665063 63.820312 57.634766 A 2.1602139 2.1602139 0 0 0 64.431641 56.585938 C 64.641314 56.452822 64.890612 56.375 65.162109 56.375 z M 13.013672 60.613281 A 2.1602139 2.1602139 0 0 0 14.244141 60.703125 C 14.7512 60.962382 15.095703 61.482555 15.095703 62.099609 C 15.095703 62.980116 14.401992 63.673828 13.521484 63.673828 C 12.640976 63.673828 11.945312 62.980116 11.945312 62.099609 C 11.945312 61.398252 12.38945 60.821545 13.013672 60.613281 z M 51.0625 62.9375 C 51.818744 62.9375 52.412109 63.530865 52.412109 64.287109 C 52.412109 64.411393 52.391492 64.528981 52.361328 64.642578 A 2.1602139 2.1602139 0 0 0 51.732422 65.371094 A 2.1602139 2.1602139 0 0 0 51.705078 65.371094 A 2.1602139 2.1602139 0 0 0 50.787109 65.609375 C 50.166818 65.485369 49.712891 64.948822 49.712891 64.287109 C 49.712891 64.199288 49.720987 64.114016 49.736328 64.03125 A 2.1602139 2.1602139 0 0 0 50.341797 63.142578 C 50.549495 63.013199 50.795146 62.9375 51.0625 62.9375 z M 33.640625 63.066406 C 34.099965 63.279748 34.414062 63.739215 34.414062 64.287109 C 34.414062 65.019189 33.856373 65.592596 33.134766 65.628906 A 2.1602139 2.1602139 0 0 0 32.103516 65.244141 C 31.861672 65.001292 31.714844 64.664224 31.714844 64.287109 C 31.714844 63.746666 32.019648 63.293272 32.46875 63.076172 A 2.1602139 2.1602139 0 0 0 33.640625 63.066406 z M 93.470703 67.753906 A 2.1602139 2.1602139 0 0 0 94.751953 67.765625 C 95.412292 68.020346 95.867188 68.649297 95.867188 69.414062 C 95.867188 70.413505 95.093192 71.185547 94.09375 71.185547 C 93.094307 71.185547 92.324219 70.413505 92.324219 69.414062 C 92.324219 69.385857 92.330816 69.359864 92.332031 69.332031 A 2.1602139 2.1602139 0 0 0 92.771484 68.230469 C 92.959614 68.018622 93.196382 67.853569 93.470703 67.753906 z M 65.162109 74.375 C 65.901559 74.375 66.480276 74.943594 66.505859 75.675781 A 2.1602139 2.1602139 0 0 0 66.09375 76.703125 C 65.852661 76.93285 65.528505 77.074219 65.162109 77.074219 C 64.405866 77.074219 63.810547 76.480854 63.810547 75.724609 C 63.810547 75.599523 63.832739 75.481436 63.863281 75.367188 A 2.1602139 2.1602139 0 0 0 64.542969 74.527344 C 64.728058 74.433304 64.936769 74.375 65.162109 74.375 z M 37.931641 83.25 C 36.003784 83.25 34.423828 84.829956 34.423828 86.757812 C 34.423828 88.038491 35.12869 89.154269 36.162109 89.767578 A 2.1602139 2.1602139 0 0 0 36.066406 90.625 L 38.388672 120.38281 L 34.107422 121.73047 A 2.1602139 2.1602139 0 0 0 33.332031 122.15625 C 32.772067 121.74289 32.089775 121.48828 31.345703 121.48828 C 30.252393 121.48828 29.283914 122.02531 28.666016 122.83984 A 2.1602139 2.1602139 0 0 0 27.792969 122.66797 L 20.226562 122.5918 A 2.1602139 2.1602139 0 0 0 19.382812 122.73438 C 18.747652 121.81343 17.688685 121.20312 16.494141 121.20312 C 14.566284 121.20312 12.986328 122.78699 12.986328 124.71484 C 12.986328 126.6427 14.566284 128.22461 16.494141 128.22461 C 17.662394 128.22461 18.69847 127.63901 19.337891 126.75195 A 2.1602139 2.1602139 0 0 0 20.183594 126.91211 L 27.75 126.98633 A 2.1602139 2.1602139 0 0 0 28.623047 126.83398 C 29.23821 127.68019 30.228073 128.24023 31.345703 128.24023 C 32.81882 128.24023 34.067253 127.27086 34.523438 125.94531 A 2.1602139 2.1602139 0 0 0 35.402344 125.85156 L 40.912109 124.11719 A 2.1602139 2.1602139 0 0 0 42.691406 122.75 A 2.1602139 2.1602139 0 0 0 42.802734 121.43945 L 40.373047 90.291016 A 2.1602139 2.1602139 0 0 0 40.146484 89.455078 C 40.930265 88.809311 41.443359 87.844198 41.443359 86.757812 C 41.443359 84.829956 39.859499 83.25 37.931641 83.25 z M 64.933594 83.25 C 63.005736 83.25 61.423828 84.829956 61.423828 86.757812 C 61.423828 88.685669 63.005736 90.267578 64.933594 90.267578 C 65.219786 90.267578 65.494873 90.223919 65.761719 90.158203 A 2.1602139 2.1602139 0 0 0 66.285156 90.832031 L 74.330078 97.933594 L 74.251953 112.63672 L 61.767578 113.4707 A 2.1602139 2.1602139 0 0 0 60.900391 113.69141 C 60.279217 112.96428 59.36891 112.49023 58.345703 112.49023 C 56.492405 112.49023 54.970703 114.00998 54.970703 115.86328 C 54.970704 117.71658 56.492405 119.23828 58.345703 119.23828 C 59.5301 119.23828 60.574394 118.6137 61.177734 117.68164 A 2.1602139 2.1602139 0 0 0 62.056641 117.78125 L 76.453125 116.81641 A 2.1606703 2.1606703 0 0 0 76.728516 116.79102 A 2.1602139 2.1602139 0 0 0 76.816406 116.77539 A 2.1606703 2.1606703 0 0 0 76.916016 116.75391 A 2.1602139 2.1602139 0 0 0 77.089844 116.70508 A 2.1606703 2.1606703 0 0 0 77.105469 116.69922 A 2.1602139 2.1602139 0 0 0 77.291016 116.62695 A 2.1606703 2.1606703 0 0 0 77.296875 116.62305 A 2.1602139 2.1602139 0 0 0 78.564453 114.45508 L 78.654297 96.974609 A 2.1603911 2.1603911 0 0 0 78.650391 96.855469 A 2.1602139 2.1602139 0 0 0 77.685547 95.130859 L 69.142578 87.595703 A 2.1602139 2.1602139 0 0 0 68.402344 87.152344 C 68.41739 87.021281 68.443359 86.892676 68.443359 86.757812 C 68.443359 84.829956 66.861451 83.25 64.933594 83.25 z M 37.931641 85.048828 C 38.886707 85.048828 39.644531 85.802746 39.644531 86.757812 C 39.644531 87.454744 39.239213 88.041923 38.650391 88.310547 A 2.1602139 2.1602139 0 0 0 38.234375 88.265625 A 2.1602139 2.1602139 0 0 0 37.472656 88.400391 C 36.747612 88.201817 36.222656 87.552176 36.222656 86.757812 C 36.222656 85.802746 36.976574 85.048828 37.931641 85.048828 z M 46.933594 85.048828 C 47.88866 85.048828 48.642578 85.802746 48.642578 86.757812 C 48.642578 87.465268 48.227673 88.061475 47.625 88.324219 A 2.1602139 2.1602139 0 0 0 47.203125 88.271484 A 2.1602139 2.1602139 0 0 0 46.439453 88.390625 C 45.732185 88.180707 45.222656 87.539268 45.222656 86.757812 C 45.222656 85.802746 45.978527 85.048828 46.933594 85.048828 z M 64.933594 85.048828 C 65.888659 85.048828 66.642578 85.802746 66.642578 86.757812 C 66.642578 86.97625 66.599605 87.18207 66.527344 87.373047 A 2.1602139 2.1602139 0 0 0 65.744141 88.259766 C 65.502914 88.388931 65.230163 88.46875 64.933594 88.46875 C 63.978527 88.46875 63.222656 87.712879 63.222656 86.757812 C 63.222656 85.802746 63.978527 85.048828 64.933594 85.048828 z M 56.214844 85.076172 C 57.032057 85.208168 57.644531 85.899341 57.644531 86.757812 C 57.644531 87.712879 56.888659 88.46875 55.933594 88.46875 C 54.978527 88.46875 54.224609 87.712879 54.224609 86.757812 C 54.224609 86.162455 54.516723 85.644975 54.96875 85.339844 A 2.1602139 2.1602139 0 0 0 56.214844 85.076172 z M 94.09375 85.642578 C 95.093192 85.642578 95.867188 86.41462 95.867188 87.414062 C 95.867188 88.37991 95.141947 89.128112 94.191406 89.177734 A 2.1602139 2.1602139 0 0 0 93.041016 88.84375 C 92.604754 88.525013 92.324219 88.012506 92.324219 87.414062 C 92.324219 87.386522 92.330872 87.36117 92.332031 87.333984 A 2.1602139 2.1602139 0 0 0 92.771484 86.232422 C 93.092312 85.870958 93.556816 85.642578 94.09375 85.642578 z M 25.753906 92.832031 A 2.1602171 2.1602171 0 0 0 26.828125 92.859375 C 27.488775 93.09503 27.955078 93.715912 27.955078 94.464844 C 27.955078 94.968286 27.740353 95.411962 27.402344 95.722656 A 2.1602139 2.1602139 0 0 0 26.318359 96.166016 C 26.293796 96.167026 26.270939 96.173828 26.246094 96.173828 C 25.291027 96.173828 24.537109 95.419909 24.537109 94.464844 C 24.537109 93.682617 25.046136 93.041289 25.753906 92.832031 z M 13.521484 94.724609 C 11.668186 94.724609 10.144531 96.244357 10.144531 98.097656 C 10.144531 99.406274 10.910931 100.53824 12.009766 101.09766 A 2.1602139 2.1602139 0 0 0 11.984375 101.98242 L 13.748047 112.41602 A 2.1603493 2.1603493 0 0 0 14.050781 113.20898 C 13.396774 113.84799 12.986328 114.73554 12.986328 115.71484 C 12.986328 117.6427 14.566284 119.22266 16.494141 119.22266 C 17.670807 119.22266 18.713385 118.62958 19.351562 117.73242 A 2.1607541 2.1607541 0 0 0 20.183594 117.91211 L 27.75 117.98828 A 2.1602139 2.1602139 0 0 0 28.625 117.83594 C 29.240292 118.68018 30.229056 119.23828 31.345703 119.23828 C 33.199003 119.23828 34.71875 117.71658 34.71875 115.86328 C 34.71875 114.00998 33.199003 112.49023 31.345703 112.49023 C 30.252837 112.49023 29.285909 113.02783 28.667969 113.8418 A 2.1602139 2.1602139 0 0 0 27.792969 113.66992 L 20.226562 113.5918 A 2.1607541 2.1607541 0 0 0 19.396484 113.75 C 19.043047 113.2315 18.549629 112.81943 17.978516 112.54883 A 2.1603493 2.1603493 0 0 0 18.007812 111.69727 L 16.246094 101.26367 A 2.1602139 2.1602139 0 0 0 15.935547 100.43945 C 16.525673 99.830282 16.894531 99.005475 16.894531 98.097656 C 16.894531 96.244357 15.374784 94.724609 13.521484 94.724609 z M 13.521484 96.523438 C 14.401992 96.523438 15.095703 97.217148 15.095703 98.097656 C 15.095703 98.677704 14.79131 99.172169 14.333984 99.445312 A 2.1602139 2.1602139 0 0 0 14.148438 99.433594 A 2.1602139 2.1602139 0 0 0 13.197266 99.638672 C 12.476698 99.492148 11.945312 98.866583 11.945312 98.097656 C 11.945312 97.217148 12.640976 96.523438 13.521484 96.523438 z M 104.22656 101.50391 L 104.22656 104.62109 L 104.24805 104.62109 L 105.20312 104.62109 L 105.20312 101.50391 L 104.22656 101.50391 z M 104.26758 101.54492 L 105.16406 101.54492 L 105.16406 104.58203 L 104.26758 104.58203 L 104.26758 101.54492 z M 67.246094 103.45508 C 66.079802 103.45508 65.045945 104.03929 64.40625 104.92383 A 2.1602139 2.1602139 0 0 0 63.560547 104.76367 L 61.943359 104.74414 A 2.1607802 2.1607802 0 0 0 61.720703 104.75391 L 61.720703 104.38867 L 61.720703 103.48828 L 54.970703 103.48828 L 54.970703 110.23828 L 61.720703 110.23828 L 61.720703 109.05273 A 2.1607802 2.1607802 0 0 0 61.894531 109.06445 L 63.511719 109.08203 A 2.1602139 2.1602139 0 0 0 64.355469 108.94141 C 64.990448 109.86292 66.050567 110.47266 67.246094 110.47266 C 69.173951 110.47266 70.753906 108.8927 70.753906 106.96484 C 70.753906 105.03699 69.173951 103.45508 67.246094 103.45508 z M 67.246094 105.25391 C 68.20116 105.25391 68.955078 106.00978 68.955078 106.96484 C 68.955078 107.91991 68.20116 108.67383 67.246094 108.67383 C 66.507279 108.67383 65.891284 108.22064 65.648438 107.57422 A 2.1602139 2.1602139 0 0 0 65.660156 106.31836 C 65.912184 105.69054 66.521052 105.25391 67.246094 105.25391 z M 58.345703 105.29102 C 59.046569 105.29102 59.621435 105.7339 59.830078 106.35742 A 2.1607802 2.1607802 0 0 0 59.820312 107.41016 C 59.601588 108.01453 59.03299 108.43945 58.345703 108.43945 C 57.465195 108.43945 56.769531 107.74574 56.769531 106.86523 C 56.769531 105.98473 57.465195 105.29102 58.345703 105.29102 z M 31.361328 105.29297 C 32.23417 105.30139 32.919922 105.99011 32.919922 106.86523 C 32.919921 107.74574 32.226211 108.43945 31.345703 108.43945 C 30.465195 108.43945 29.771484 107.74574 29.771484 106.86523 C 29.771484 106.43056 29.941492 106.04253 30.21875 105.75977 A 2.1602139 2.1602139 0 0 0 31.361328 105.29297 z M 16.755859 114.03125 C 17.40776 114.12943 17.926726 114.58218 18.119141 115.19531 A 2.1607541 2.1607541 0 0 0 18.109375 116.26758 C 17.881877 116.94357 17.253945 117.42383 16.494141 117.42383 C 15.539075 117.42383 14.785156 116.66991 14.785156 115.71484 C 14.785156 115.05224 15.15218 114.49213 15.693359 114.20703 A 2.1603493 2.1603493 0 0 0 16.755859 114.03125 z M 31.345703 114.28906 C 32.226211 114.28906 32.919922 114.98277 32.919922 115.86328 C 32.919921 116.74379 32.226211 117.43945 31.345703 117.43945 C 30.679614 117.43945 30.121654 117.04146 29.888672 116.4668 A 2.1602139 2.1602139 0 0 0 29.900391 115.23242 C 30.140309 114.67363 30.691019 114.28906 31.345703 114.28906 z M 58.345703 114.28906 C 58.965796 114.28906 59.486246 114.63724 59.744141 115.14844 A 2.1602139 2.1602139 0 0 0 59.826172 116.38477 C 59.6142 117.00211 59.042195 117.43945 58.345703 117.43945 C 57.465195 117.43945 56.769531 116.74379 56.769531 115.86328 C 56.769531 114.98277 57.465195 114.28906 58.345703 114.28906 z M 69.128906 119.8418 C 67.769849 119.8418 66.595444 120.6358 66.013672 121.77539 A 2.1602139 2.1602139 0 0 0 65.519531 121.70312 A 2.1602139 2.1602139 0 0 0 65.15625 121.72852 L 61.583984 122.22852 A 2.1602139 2.1602139 0 0 0 60.751953 122.50781 C 60.13755 121.881 59.285202 121.48828 58.345703 121.48828 C 56.492405 121.48828 54.970703 123.00998 54.970703 124.86328 C 54.970704 126.71659 56.492405 128.24023 58.345703 128.24023 C 59.617692 128.24023 60.721626 127.51413 61.296875 126.46484 A 2.1602139 2.1602139 0 0 0 62.185547 126.50586 L 65.753906 126.00586 A 2.1602139 2.1602139 0 0 0 66.568359 125.72852 C 67.210446 126.42065 68.117872 126.86328 69.128906 126.86328 C 71.056764 126.86328 72.638672 125.27942 72.638672 123.35156 C 72.638672 121.4237 71.056764 119.8418 69.128906 119.8418 z M 69.128906 121.64258 C 70.083973 121.64258 70.839844 122.3965 70.839844 123.35156 C 70.839844 124.30663 70.083973 125.0625 69.128906 125.0625 C 68.460609 125.0625 67.897165 124.68829 67.615234 124.13867 A 2.1602139 2.1602139 0 0 0 67.453125 123.00391 C 67.453125 123.00391 67.453125 123.00195 67.453125 123.00195 C 67.61119 122.21878 68.293885 121.64258 69.128906 121.64258 z M 16.494141 123.00586 C 17.232956 123.00586 17.84895 123.45904 18.091797 124.10547 A 2.1602139 2.1602139 0 0 0 18.080078 125.36133 C 17.82805 125.98847 17.219182 126.42383 16.494141 126.42383 C 15.539075 126.42383 14.785156 125.66991 14.785156 124.71484 C 14.785156 123.75978 15.539075 123.00586 16.494141 123.00586 z M 31.345703 123.28906 C 31.851412 123.28906 32.289598 123.52301 32.576172 123.88477 A 2.1602139 2.1602139 0 0 0 32.910156 124.95312 C 32.863738 125.78966 32.195306 126.43945 31.345703 126.43945 C 30.679614 126.43945 30.121654 126.04019 29.888672 125.46484 A 2.1602139 2.1602139 0 0 0 29.900391 124.23242 C 30.140309 123.67363 30.691019 123.28906 31.345703 123.28906 z M 58.345703 123.28906 C 58.930595 123.28906 59.427611 123.59874 59.699219 124.0625 A 2.1602139 2.1602139 0 0 0 59.865234 125.25586 C 59.693234 125.94061 59.089241 126.43945 58.345703 126.43945 C 57.465195 126.43945 56.769531 125.74379 56.769531 124.86328 C 56.769531 123.98277 57.465195 123.28906 58.345703 123.28906 z M 16.494141 130.20508 C 14.566284 130.20508 12.986328 131.78504 12.986328 133.71289 C 12.986328 135.64075 14.566284 137.22461 16.494141 137.22461 C 17.661868 137.22461 18.696443 136.63834 19.335938 135.75195 A 2.1602139 2.1602139 0 0 0 20.183594 135.91016 L 27.75 135.98828 A 2.1602139 2.1602139 0 0 0 28.625 135.83594 C 29.240292 136.68018 30.229056 137.23828 31.345703 137.23828 C 33.199003 137.23828 34.71875 135.71853 34.71875 133.86523 C 34.71875 132.01194 33.199003 130.48828 31.345703 130.48828 C 30.252243 130.48828 29.2839 131.02637 28.666016 131.8418 A 2.1602139 2.1602139 0 0 0 27.792969 131.66992 L 20.226562 131.5918 A 2.1602139 2.1602139 0 0 0 19.382812 131.73242 C 18.747554 130.81288 17.688147 130.20508 16.494141 130.20508 z M 16.494141 132.00391 C 17.232956 132.00391 17.84895 132.45709 18.091797 133.10352 A 2.1602139 2.1602139 0 0 0 18.080078 134.35938 C 17.82805 134.9872 17.219182 135.42383 16.494141 135.42383 C 15.539075 135.42383 14.785156 134.66796 14.785156 133.71289 C 14.785156 132.75783 15.539075 132.00391 16.494141 132.00391 z M 69.246094 132.00391 C 69.935237 132.00391 70.515094 132.39917 70.787109 132.97656 A 2.1602139 2.1602139 0 0 0 70.878906 134.19531 C 70.673269 134.90867 70.031835 135.42383 69.246094 135.42383 C 68.49 135.42383 67.865098 134.94678 67.634766 134.27539 A 2.1608572 2.1608572 0 0 0 67.619141 133.19922 C 67.835118 132.5028 68.471856 132.00391 69.246094 132.00391 z M 31.345703 132.28906 C 32.226211 132.28906 32.919922 132.98472 32.919922 133.86523 C 32.919921 134.74573 32.226211 135.43945 31.345703 135.43945 C 30.679614 135.43945 30.121654 135.04146 29.888672 134.4668 A 2.1602139 2.1602139 0 0 0 29.900391 133.23438 C 30.14029 132.67554 30.690987 132.28906 31.345703 132.28906 z M 58.345703 132.28906 C 59.001356 132.28906 59.551667 132.67619 59.791016 133.23633 A 2.1602139 2.1602139 0 0 0 59.806641 134.44922 C 59.577873 135.03303 59.018341 135.43945 58.345703 135.43945 C 57.465195 135.43945 56.769531 134.74573 56.769531 133.86523 C 56.769531 132.98472 57.465195 132.28906 58.345703 132.28906 z M 95.496094 133.04688 C 93.332682 133.04688 91.578125 134.79948 91.578125 136.96289 C 91.578125 139.1263 93.332682 140.88086 95.496094 140.88086 C 97.659507 140.88086 99.414062 139.1263 99.414062 136.96289 C 99.414062 134.79948 97.659507 133.04688 95.496094 133.04688 z M 95.496094 133.08594 C 97.637889 133.08594 99.373047 134.82109 99.373047 136.96289 C 99.373047 139.10469 97.637889 140.8418 95.496094 140.8418 C 93.3543 140.8418 91.619141 139.10469 91.619141 136.96289 C 91.619141 134.82109 93.3543 133.08594 95.496094 133.08594 z "
     transform="matrix(0.80000076,0,0,0.80000076,-1.4038099e-4,0)"
     id="boardoutline" />
</svg>
